<?xml version="1.0" encoding="utf-8"?>
<!-- Generator: Adobe Illustrator 21.0.0, SVG Export Plug-In . SVG Version: 6.00 Build 0)  -->
<svg version="1.1" id="Layer_1" xmlns="http://www.w3.org/2000/svg" xmlns:xlink="http://www.w3.org/1999/xlink" x="0px" y="0px"
	 viewBox="0 0 300 260" style="enable-background:new 0 0 300 260;" xml:space="preserve">
<style type="text/css">
	.st0{fill:#3D7C95;}
	.st1{fill:#8CCEEF;}
	.st2{fill:#5B394C;}
	.st3{fill:#AF674E;}
	.st4{fill:#684155;}
	.st5{fill:#B9C16B;}
	.st6{fill:#82B279;}
	.st7{fill:#B6BA67;}
	.st8{fill:#7ABC6D;}
	.st9{fill:#BCC46C;}
	.st10{fill:#88DB79;}
	.st11{fill:#C6D87D;}
	.st12{fill:#C1CE78;}
	.st13{fill:#A5E19C;}
	.st14{fill:#9ADD8E;}
	.st15{fill:#5B4B40;}
	.st16{fill:#EEA050;}
	.st17{opacity:0.15;}
	.st18{fill:#5E6A6E;}
	.st19{fill:#FFFFFF;}
	.st20{fill:#2C5E6D;}
	.st21{fill:#FDC86A;}
	.st22{opacity:0.37;}
</style>
<g>
	<rect x="58.7" y="245.8" class="st0" width="10" height="12.1"/>
</g>
<g>
	<rect x="181.3" y="245.8" class="st0" width="10" height="12.1"/>
</g>
<g>
	<g>
		<path class="st1" d="M65.1,248.5c-2.3,0-4.2-1.9-4.2-4.2V202c0-2.3,1.9-4.2,4.2-4.2h118.6c2.3,0,4.2,1.9,4.2,4.2v42.3
			c0,2.3-1.9,4.2-4.2,4.2H65.1z"/>
	</g>
	<g>
		<path class="st0" d="M183.7,199.2c1.5,0,2.8,1.3,2.8,2.8v42.3c0,1.5-1.3,2.8-2.8,2.8H65.1c-1.5,0-2.8-1.3-2.8-2.8V202
			c0-1.5,1.3-2.8,2.8-2.8H183.7 M183.7,196.4H65.1c-3.1,0-5.6,2.5-5.6,5.6v42.3c0,3.1,2.5,5.6,5.6,5.6h118.6c3.1,0,5.6-2.5,5.6-5.6
			V202C189.4,198.9,186.9,196.4,183.7,196.4L183.7,196.4z"/>
	</g>
</g>
<g>
	<rect x="1.7" y="257.4" class="st0" width="300" height="2.1"/>
</g>
<g>
	<g>
		<path class="st2" d="M241.9,150.8c-3.4,0-5.7-0.2-6.5-0.3c0.8-0.2,3.1-0.3,6.5-0.3c3.4,0,5.7,0.2,6.5,0.3
			C247.6,150.6,245.3,150.8,241.9,150.8z"/>
	</g>
	<g>
		<path class="st3" d="M246.7,164.4L246.7,164.4c-3.1,1.3-6.5,1.3-9.4,0l0,0l-2.4-14h14L246.7,164.4z"/>
	</g>
	<g>
		<ellipse class="st4" cx="241.9" cy="150.4" rx="7" ry="0.5"/>
	</g>
	<g>
		<path class="st2" d="M241.9,150.8c-3.4,0-5.7-0.2-6.5-0.3c0.8-0.2,3.1-0.3,6.5-0.3c3.4,0,5.7,0.2,6.5,0.3
			C247.6,150.6,245.3,150.8,241.9,150.8z"/>
	</g>
	<g>
		<path class="st5" d="M239.9,136.3c0,0,1.4,8.3,0.8,14.1c0,0,0.7,0.3,1,0c0.3-0.3-0.2-12.6-1.2-14.5
			C240.4,135.9,239.8,135.9,239.9,136.3z"/>
	</g>
	<g>
		<path class="st6" d="M240.4,136.8c0,0-10.4-8.2-10.5-24.1c0-0.2,0.2-0.3,0.3-0.2C232.5,113.5,246.2,120.9,240.4,136.8z"/>
	</g>
	<g>
		<path class="st7" d="M231,115.1c2.2,6.1,7.5,19.8,9.4,21.6c0,0-5.9-15.2-9-21.8C231.3,114.7,230.9,114.9,231,115.1z"/>
	</g>
	<g>
		<path class="st8" d="M221.2,115.7c-0.1-0.5,0.3-0.9,0.8-0.6c4.6,2.6,21.2,12.7,16.4,21.1C233.2,145.4,223.7,123.9,221.2,115.7z"/>
	</g>
	<g>
		<path class="st9" d="M235.9,135c0,0,3.1,2.6,4,15.3l1.3-0.1c0,0-1.4-12.6-5.3-16V135z"/>
	</g>
	<g>
		<path class="st7" d="M221.9,115.9c0,0,9.2,19.2,15.5,21.5c0,0,0.5,0.1,0.5-0.4C237.9,137,226.6,123.9,221.9,115.9z"/>
	</g>
	<g>
		<path class="st10" d="M256.2,124.4c0.1-0.3-0.3-0.6-0.6-0.5c-3.4,1.9-15.9,9.5-12.3,15.8C247.3,146.7,254.3,130.5,256.2,124.4z"/>
	</g>
	<g>
		<path class="st9" d="M245.2,138.9c0,0-2.3,2-3,11.4l-1-0.1c0,0,1.1-9.4,4-11.9V138.9z"/>
	</g>
	<g>
		<path class="st7" d="M255.7,124.6c0,0-6.9,14.3-11.6,16.1c0,0-0.4,0-0.4-0.3C243.7,140.4,252.1,130.5,255.7,124.6z"/>
	</g>
	<g>
		<path class="st11" d="M237.3,142.3c0,0,5.7-8.2-9.3-10.5c0,0-0.1,0,0,0.1C228.2,132.6,231.7,139.9,237.3,142.3z"/>
	</g>
	<g>
		<path class="st11" d="M236.7,141.5c0,0,1.5,2,1.4,9l1.4-0.1c0,0-1.8-11.2-2.7-9.1"/>
	</g>
	<g>
		<path class="st12" d="M237.6,141.6l-9-9c-0.1-0.1-0.2,0-0.2,0.1c1.6,2.2,5.7,7.8,8.8,9.6C237.3,142.3,237.8,142.5,237.6,141.6z"/>
	</g>
	<g>
		<polygon class="st9" points="242.4,135.5 241.2,150.2 242.6,150.2 243,135.5 		"/>
	</g>
	<g>
		<path class="st13" d="M242.8,135.9c0,0-9.4-1.6-0.6-12.1c0.2-0.2,0.6-0.2,0.8,0C244.7,125.9,251,134.4,242.8,135.9z"/>
	</g>
	<g>
		<path class="st12" d="M242.4,135.8l0.2-10.9c0-0.1,0.1-0.1,0.1,0l0.4,11C243.1,135.9,242.6,136.2,242.4,135.8z"/>
	</g>
	<g>
		<path class="st14" d="M248.4,133c0.5-1.5,3-6.4,16.1-6.7c0,0,0.1,0.1,0,0.1c-1.2,1-14.1,11.1-16.1,7.5
			C248.3,133.6,248.3,133.3,248.4,133z"/>
	</g>
	<g>
		<path class="st11" d="M248.3,133.5c0,0-5.3,11.9-5.2,16.9h1.4c0,0-0.8-5.3,4.6-16.6C249.1,133.8,249.1,133.1,248.3,133.5z"/>
	</g>
	<g>
		<path class="st12" d="M248.3,133.5c0,0,4.6-0.7,15.6-6.8c0,0-11,6.4-15,7.6C248.9,134.4,248.3,134.5,248.3,133.5z"/>
	</g>
	<g>
		<path class="st15" d="M246.6,150.6c-1.6-0.3-3.3-0.5-4.9-0.5c-0.3,0-0.7,0-1,0c-1.1,0-2.2,0.2-3.3,0.5c1.1,0.1,2.6,0.1,4.5,0.1
			C243.9,150.8,245.5,150.7,246.6,150.6z"/>
	</g>
</g>
<g>
	<g>
		<g>
			<path class="st0" d="M15.6,248.8h28.8c2.2,0,3.9,1.4,3.9,3v6.7H12v-5.7C12,250.6,13.6,248.8,15.6,248.8z"/>
		</g>
	</g>
	<g>
		<rect x="28.1" y="134.7" class="st0" width="4.3" height="114"/>
	</g>
	<g>
		<polygon class="st16" points="4.4,163.2 55.9,163.2 48.7,129.9 11.6,129.9 		"/>
		<path class="st0" d="M56.8,163.9H3.6l7.5-34.7h38.3L56.8,163.9z M5.3,162.5H55l-6.9-31.9h-36L5.3,162.5z"/>
	</g>
</g>
<g class="st17">
	<g>
		<rect x="13.4" y="46.2" class="st18" width="39.2" height="39.1"/>
	</g>
	<g>
		<g>
			<rect x="19.2" y="52" class="st19" width="27.6" height="27.4"/>
		</g>
	</g>
	<g>
		<rect x="23.5" y="56.3" class="st1" width="19.1" height="18.9"/>
	</g>
	<g>
		<path class="st16" d="M38.2,74.3c0,0-0.7-1.7-2.4-2.9c0,0,1.8-6.4,0-8.9c-1.8-2.5-5.7-1.2-5.9,2.3c-0.3,3.4,1.3,6.7,1.3,6.7
			s-1.7,0.8-2.4,2.9H38.2z"/>
	</g>
</g>
<g>
	<g>
		<g>
			<path class="st20" d="M114.5,53.7c-9.9,0-14.8-6.7-15.2-13l-0.1-1.2l8.3-1.9l0.1,1.7c0.2,4,2.9,6.6,6.8,6.6
				c3.9,0,6.4-2.1,6.4-5.4c0-4.1-3.3-5.5-6.1-5.5c-0.9,0-1.9,0.2-2.8,0.5l-1.1,0.4l-3.9-6.6l9.1-8.4h-15.5v-8h27.9V20l-8.8,8.1
				c5.2,1.2,9.6,5.4,9.6,12.3C129.3,47,124.2,53.7,114.5,53.7z"/>
		</g>
	</g>
	<g>
		<g>
			<path class="st20" d="M147.6,53.6c-7.9,0-15.9-5.7-15.9-18.5c0-13.7,8.2-23,20.5-23c3.4,0,6.7,0.9,8.8,2.3l0.9,0.6l-2.7,7.2
				l-1.4-0.8c-1.1-0.6-3.3-1.4-5.9-1.4c-5.2,0-9.1,2.9-10.8,7.7c1.9-1.2,4.4-2.1,7.5-2.1c8.4,0,14.1,5.6,14.1,14
				C162.7,48.8,155.1,53.6,147.6,53.6z M147.6,33.2c-3.3,0-6.6,2-6.6,6.4c0,4.1,3.4,6.3,6.6,6.3c3.3,0,6.6-2,6.6-6.3
				C154.2,35.2,150.9,33.2,147.6,33.2z"/>
		</g>
	</g>
	<g>
		<g>
			<path class="st20" d="M180.8,53.6c-5.3,0-9.7-2.3-12.5-6.6c-2.4-3.6-3.5-8.2-3.5-14.2s1.2-10.6,3.6-14.2
				c2.9-4.3,7.2-6.6,12.5-6.6c5.3,0,9.7,2.3,12.5,6.6c2.4,3.6,3.5,8.2,3.5,14.2s-1.2,10.6-3.6,14.2
				C190.5,51.3,186.2,53.6,180.8,53.6z M180.8,19.9c-2,0-3.6,0.6-4.9,2c-1.9,2-2.9,5.6-2.9,11s0.9,9,2.9,11c1.3,1.3,2.8,2,4.9,2
				c2,0,3.6-0.6,4.9-2c1.9-2,2.9-5.6,2.9-11s-0.9-9-2.9-11C184.4,20.5,182.8,19.9,180.8,19.9z"/>
		</g>
	</g>
</g>
<g>
	<path class="st20" d="M203.9,11.6c2.1,0,3.8,1.7,3.8,3.8s-1.7,3.8-3.8,3.8c-2.1,0-3.8-1.7-3.8-3.8S201.8,11.6,203.9,11.6
		 M203.9,7.4c-4.4,0-8,3.6-8,8c0,4.4,3.6,8,8,8c4.4,0,8-3.6,8-8C211.9,11,208.3,7.4,203.9,7.4L203.9,7.4z"/>
</g>
<g>
	<g>
		<path class="st1" d="M73.8,217.2c-7.1,0-12.9-5.8-12.9-12.9v-25c0-7.1,5.8-12.9,12.9-12.9h101.3c7.1,0,12.9,5.8,12.9,12.9v25
			c0,7.1-5.8,12.9-12.9,12.9H73.8z"/>
	</g>
	<g>
		<path class="st0" d="M175.1,167.9c6.3,0,11.5,5.1,11.5,11.5v25c0,6.3-5.1,11.5-11.5,11.5H73.8c-6.3,0-11.5-5.1-11.5-11.5v-25
			c0-6.3,5.1-11.5,11.5-11.5H175.1 M175.1,165H73.8c-7.9,0-14.3,6.4-14.3,14.3v25c0,7.9,6.4,14.3,14.3,14.3h101.3
			c7.9,0,14.3-6.4,14.3-14.3v-25C189.4,171.5,183,165,175.1,165L175.1,165z"/>
	</g>
</g>
<g>
	<g>
		<path class="st1" d="M57.8,249.8c-4.9,0-8.9-4-8.9-8.9v-38.6c0-4.9,4-8.9,8.9-8.9h10.8c4.9,0,8.9,4,8.9,8.9v38.6
			c0,4.9-4,8.9-8.9,8.9H57.8z"/>
	</g>
	<g>
		<path class="st0" d="M68.5,194.8c4.2,0,7.5,3.4,7.5,7.5v38.6c0,4.2-3.4,7.5-7.5,7.5H57.8c-4.2,0-7.5-3.4-7.5-7.5v-38.6
			c0-4.2,3.4-7.5,7.5-7.5H68.5 M68.5,191.9H57.8c-5.7,0-10.3,4.6-10.3,10.3v38.6c0,5.7,4.6,10.3,10.3,10.3h10.8
			c5.7,0,10.3-4.6,10.3-10.3v-38.6C78.9,196.6,74.2,191.9,68.5,191.9L68.5,191.9z"/>
	</g>
</g>
<g>
	<g>
		<path class="st1" d="M180.9,249.8c-4.9,0-8.9-4-8.9-8.9v-38.6c0-4.9,4-8.9,8.9-8.9h10.8c4.9,0,8.9,4,8.9,8.9v38.6
			c0,4.9-4,8.9-8.9,8.9H180.9z"/>
	</g>
	<g>
		<path class="st0" d="M191.7,194.8c4.2,0,7.5,3.4,7.5,7.5v38.6c0,4.2-3.4,7.5-7.5,7.5h-10.8c-4.2,0-7.5-3.4-7.5-7.5v-38.6
			c0-4.2,3.4-7.5,7.5-7.5H191.7 M191.7,191.9h-10.8c-5.7,0-10.3,4.6-10.3,10.3v38.6c0,5.7,4.6,10.3,10.3,10.3h10.8
			c5.7,0,10.3-4.6,10.3-10.3v-38.6C202,196.6,197.4,191.9,191.7,191.9L191.7,191.9z"/>
	</g>
</g>
<g>
	<path class="st0" d="M289,259.1h-67.4c-4.2,0-7.6-3.4-7.6-7.6V105.1c0-4.2,3.4-7.6,7.6-7.6H289c4.2,0,7.6,3.4,7.6,7.6v146.4
		C296.6,255.7,293.2,259.1,289,259.1z M221.6,101.8c-1.9,0-3.4,1.5-3.4,3.4v146.4c0,1.9,1.5,3.4,3.4,3.4H289c1.9,0,3.4-1.5,3.4-3.4
		V105.1c0-1.9-1.5-3.4-3.4-3.4H221.6z"/>
</g>
<g>
	<path class="st0" d="M289,169.4h-67.4c-4.2,0-7.6-3.4-7.6-7.6v-56.3c0-4.2,3.4-7.6,7.6-7.6H289c4.2,0,7.6,3.4,7.6,7.6v56.3
		C296.6,166,293.2,169.4,289,169.4z M221.6,102.1c-1.9,0-3.4,1.5-3.4,3.4v56.3c0,1.9,1.5,3.4,3.4,3.4H289c1.9,0,3.4-1.5,3.4-3.4
		v-56.3c0-1.9-1.5-3.4-3.4-3.4H221.6z"/>
</g>
<g>
	<path class="st0" d="M289,214.3h-67.4c-4.2,0-7.6-3.4-7.6-7.6v-33.9c0-4.2,3.4-7.6,7.6-7.6H289c4.2,0,7.6,3.4,7.6,7.6v33.9
		C296.6,210.9,293.2,214.3,289,214.3z M221.6,169.4c-1.9,0-3.4,1.5-3.4,3.4v33.9c0,1.9,1.5,3.4,3.4,3.4H289c1.9,0,3.4-1.5,3.4-3.4
		v-33.9c0-1.9-1.5-3.4-3.4-3.4H221.6z"/>
</g>
<g>
	<path class="st0" d="M289,259.2h-67.4c-4.2,0-7.6-3.4-7.6-7.6v-33.9c0-4.2,3.4-7.6,7.6-7.6H289c4.2,0,7.6,3.4,7.6,7.6v33.9
		C296.6,255.8,293.2,259.2,289,259.2z M221.6,214.3c-1.9,0-3.4,1.5-3.4,3.4v33.9c0,1.9,1.5,3.4,3.4,3.4H289c1.9,0,3.4-1.5,3.4-3.4
		v-33.9c0-1.9-1.5-3.4-3.4-3.4H221.6z"/>
</g>
<g>
	<g>
		<path class="st1" d="M268.2,255c-0.2,0-0.4-0.1-0.6-0.3l-14.9-21.5c-0.1-0.2-0.1-0.3-0.1-0.5c0-0.2,0.1-0.3,0.3-0.5l5-3.5
			c0.1-0.1,0.3-0.1,0.4-0.1c0.2,0,0.4,0.1,0.6,0.3l14.9,21.5c0.1,0.2,0.1,0.3,0.1,0.5c0,0.2-0.1,0.3-0.3,0.5l-5,3.5
			C268.5,255,268.4,255,268.2,255z"/>
	</g>
	<g>
		<path class="st0" d="M258.3,229.3l14.9,21.5l-5,3.5l-14.9-21.5L258.3,229.3 M258.3,227.9c-0.3,0-0.6,0.1-0.8,0.3l-5,3.5
			c-0.3,0.2-0.5,0.5-0.6,0.9s0,0.8,0.2,1.1l14.9,21.5c0.3,0.4,0.7,0.6,1.2,0.6c0.3,0,0.6-0.1,0.8-0.3l5-3.5c0.3-0.2,0.5-0.5,0.6-0.9
			c0.1-0.4,0-0.8-0.2-1.1l-14.9-21.5C259.2,228.1,258.8,227.9,258.3,227.9L258.3,227.9z"/>
	</g>
</g>
<g>
	<g>
		<path class="st1" d="M279,166.1c-0.4,0-0.7-0.3-0.7-0.7v-32.8c0-0.4,0.3-0.7,0.7-0.7h8c0.4,0,0.7,0.3,0.7,0.7v32.8
			c0,0.4-0.3,0.7-0.7,0.7H279z"/>
	</g>
	<g>
		<path class="st0" d="M287,132.7v32.8h-8v-32.8H287 M287,131.2h-8c-0.8,0-1.4,0.6-1.4,1.4v32.8c0,0.8,0.6,1.4,1.4,1.4h8
			c0.8,0,1.4-0.6,1.4-1.4v-32.8C288.4,131.9,287.8,131.2,287,131.2L287,131.2z"/>
	</g>
</g>
<g>
	<g>
		<path class="st16" d="M267.8,166.1c-0.4,0-0.7-0.3-0.7-0.7v-32.8c0-0.4,0.3-0.7,0.7-0.7h8c0.4,0,0.7,0.3,0.7,0.7v32.8
			c0,0.4-0.3,0.7-0.7,0.7H267.8z"/>
	</g>
	<g>
		<path class="st0" d="M275.8,132.7v32.8h-8v-32.8H275.8 M275.8,131.2h-8c-0.8,0-1.4,0.6-1.4,1.4v32.8c0,0.8,0.6,1.4,1.4,1.4h8
			c0.8,0,1.4-0.6,1.4-1.4v-32.8C277.2,131.9,276.6,131.2,275.8,131.2L275.8,131.2z"/>
	</g>
</g>
<g>
	<g>
		<path class="st16" d="M243.8,255.8c-0.4,0-0.7-0.3-0.7-0.7v-32.8c0-0.4,0.3-0.7,0.7-0.7h6.1c0.4,0,0.7,0.3,0.7,0.7v32.8
			c0,0.4-0.3,0.7-0.7,0.7H243.8z"/>
	</g>
	<g>
		<path class="st0" d="M250,222.3v32.8h-6.1v-32.8H250 M250,220.8h-6.1c-0.8,0-1.4,0.6-1.4,1.4v32.8c0,0.8,0.6,1.4,1.4,1.4h6.1
			c0.8,0,1.4-0.6,1.4-1.4v-32.8C251.4,221.5,250.8,220.8,250,220.8L250,220.8z"/>
	</g>
</g>
<g>
	<g>
		<path class="st1" d="M235.2,255.8c-0.4,0-0.7-0.3-0.7-0.7v-32.8c0-0.4,0.3-0.7,0.7-0.7h6.1c0.4,0,0.7,0.3,0.7,0.7v32.8
			c0,0.4-0.3,0.7-0.7,0.7H235.2z"/>
	</g>
	<g>
		<path class="st0" d="M241.3,222.3v32.8h-6.1v-32.8H241.3 M241.3,220.8h-6.1c-0.8,0-1.4,0.6-1.4,1.4v32.8c0,0.8,0.6,1.4,1.4,1.4
			h6.1c0.8,0,1.4-0.6,1.4-1.4v-32.8C242.7,221.5,242.1,220.8,241.3,220.8L241.3,220.8z"/>
	</g>
</g>
<g>
	<g>
		<path class="st1" d="M225.4,255.8c-0.4,0-0.7-0.3-0.7-0.7v-33.3c0-0.4,0.3-0.7,0.7-0.7h5.9c0.4,0,0.7,0.3,0.7,0.7v33.3
			c0,0.4-0.3,0.7-0.7,0.7H225.4z"/>
	</g>
	<g>
		<path class="st0" d="M231.3,221.8v33.3h-5.9v-33.3H231.3 M231.3,220.4h-5.9c-0.8,0-1.4,0.6-1.4,1.4v33.3c0,0.8,0.6,1.4,1.4,1.4
			h5.9c0.8,0,1.4-0.6,1.4-1.4v-33.3C232.7,221,232.1,220.4,231.3,220.4L231.3,220.4z"/>
	</g>
</g>
<g>
	<g>
		<path class="st16" d="M276.8,210c-0.4,0-0.7-0.3-0.7-0.7v-29.9c0-0.4,0.3-0.7,0.7-0.7h7c0.4,0,0.7,0.3,0.7,0.7v29.9
			c0,0.4-0.3,0.7-0.7,0.7H276.8z"/>
	</g>
	<g>
		<path class="st0" d="M283.8,179.4v29.9h-7v-29.9H283.8 M283.8,178h-7c-0.8,0-1.4,0.6-1.4,1.4v29.9c0,0.8,0.6,1.4,1.4,1.4h7
			c0.8,0,1.4-0.6,1.4-1.4v-29.9C285.2,178.6,284.6,178,283.8,178L283.8,178z"/>
	</g>
</g>
<g>
	<g>
		<path class="st1" d="M268,210c-0.4,0-0.7-0.3-0.7-0.7v-29.9c0-0.4,0.3-0.7,0.7-0.7h7c0.4,0,0.7,0.3,0.7,0.7v29.9
			c0,0.4-0.3,0.7-0.7,0.7H268z"/>
	</g>
	<g>
		<path class="st0" d="M275,179.4v29.9h-7v-29.9H275 M275,178h-7c-0.8,0-1.4,0.6-1.4,1.4v29.9c0,0.8,0.6,1.4,1.4,1.4h7
			c0.8,0,1.4-0.6,1.4-1.4v-29.9C276.4,178.6,275.8,178,275,178L275,178z"/>
	</g>
</g>
<g>
	<g>
		<path class="st16" d="M233.2,209.5c-0.4,0-0.7-0.3-0.7-0.7v-26.9c0-0.4,0.3-0.7,0.7-0.7h6.7c0.4,0,0.7,0.3,0.7,0.7v26.9
			c0,0.4-0.3,0.7-0.7,0.7H233.2z"/>
	</g>
	<g>
		<path class="st0" d="M239.9,181.9v26.9h-6.7v-26.9H239.9 M239.9,180.5h-6.7c-0.8,0-1.4,0.6-1.4,1.4v26.9c0,0.8,0.6,1.4,1.4,1.4
			h6.7c0.8,0,1.4-0.6,1.4-1.4v-26.9C241.3,181.1,240.7,180.5,239.9,180.5L239.9,180.5z"/>
	</g>
</g>
<g>
	<g>
		<path class="st1" d="M223.5,209.5c-0.4,0-0.7-0.3-0.7-0.7v-27.6c0-0.4,0.3-0.7,0.7-0.7h6.1c0.4,0,0.7,0.3,0.7,0.7v27.6
			c0,0.4-0.3,0.7-0.7,0.7H223.5z"/>
	</g>
	<g>
		<path class="st0" d="M229.6,181.2v27.6h-6.1v-27.6H229.6 M229.6,179.7h-6.1c-0.8,0-1.4,0.6-1.4,1.4v27.6c0,0.8,0.6,1.4,1.4,1.4
			h6.1c0.8,0,1.4-0.6,1.4-1.4v-27.6C231,180.4,230.4,179.7,229.6,179.7L229.6,179.7z"/>
	</g>
</g>
<g>
	<g>
		<g>
			<path class="st13" d="M122,211.1C122,211.1,122,211.1,122,211.1c0-0.3,0.1-0.5,0.1-0.8c0-0.1,0-0.3,0-0.4c0-0.2,0.1-0.5,0.1-0.7
				c0-0.1,0-0.3,0-0.4c0-0.3,0-0.6,0.1-0.9c0-0.1,0-0.2,0-0.3c0-0.4,0-0.8,0.1-1.2c0-0.1,0-0.2,0-0.3c0-0.3,0-0.6,0-0.9
				c0-0.2,0-0.3,0-0.5c0-0.3,0-0.5,0-0.8c0-0.2,0-0.3,0-0.5c0-0.3,0-0.5,0-0.8c0-0.2,0-0.3,0-0.5c0-0.3,0-0.5,0-0.8
				c0-0.2,0-0.3,0-0.5c0-0.3,0-0.6-0.1-1c0-0.1,0-0.2,0-0.3c0-0.4-0.1-0.8-0.1-1.2c0-0.2,0-0.4-0.1-0.5c0-0.2,0-0.5-0.1-0.7
				c0-0.2,0-0.4-0.1-0.6c0-0.2-0.1-0.4-0.1-0.6c0-0.2-0.1-0.4-0.1-0.6c0-0.2-0.1-0.4-0.1-0.6c0-0.2-0.1-0.4-0.1-0.6
				c0-0.2-0.1-0.4-0.1-0.6c0-0.2-0.1-0.4-0.1-0.6c0-0.1-0.1-0.3-0.1-0.4c-0.1-0.4-0.2-0.9-0.3-1.3c0-0.1-0.1-0.3-0.1-0.4
				c0-0.2-0.1-0.4-0.1-0.6c0-0.1-0.1-0.3-0.1-0.4c-0.1-0.2-0.1-0.4-0.2-0.6c0-0.1-0.1-0.3-0.1-0.4c-0.1-0.2-0.1-0.4-0.2-0.6
				c0-0.1-0.1-0.2-0.1-0.3c-0.1-0.2-0.1-0.4-0.2-0.6c0-0.1,0-0.1-0.1-0.2c-0.2-0.7-0.5-1.3-0.7-1.9c0,0,0,0,0,0
				c0.7-0.4,1.3-1.1,1.3-2c0-1.3-1-2.3-2.3-2.3c-1,0-1.9,0.7-2.2,1.6c-14.5-3.6-25.5-0.8-29.9,0.8c-0.3-1-1.1-1.7-2.2-1.7
				c-1.3,0-2.3,1-2.3,2.3c0,1.2,0.9,2.2,2.1,2.3c-0.8,7.1-1.3,21.8,2.3,27.7c-0.1,0.2-0.1,0.5-0.1,0.8c0,1.3,1,2.3,2.3,2.3
				c0.8,0,1.4-0.4,1.9-1c0.2,0,0.3,0.1,0.5,0.1l0,0l0,0c0.3,0,0.5,0.1,0.8,0.1c0,0,0,0,0.1,0c0.3,0,0.5,0.1,0.8,0.1c0,0,0,0,0.1,0
				c1.2,0.2,2.4,0.3,3.8,0.4c0,0,0,0,0.1,0c0.3,0,0.6,0,0.8,0.1c0.1,0,0.2,0,0.3,0c0.3,0,0.5,0,0.8,0.1c0.1,0,0.3,0,0.4,0
				c0.3,0,0.5,0,0.8,0c0.1,0,0.3,0,0.4,0c0.3,0,0.5,0,0.8,0c0.1,0,0.3,0,0.4,0c0.4,0,0.9,0,1.3,0c0.2,0,0.4,0,0.6,0
				c0.2,0,0.4,0,0.6,0c0.2,0,0.4,0,0.7,0c0.2,0,0.4,0,0.6,0c0.2,0,0.4,0,0.7,0c0.2,0,0.4,0,0.6,0c0.2,0,0.5,0,0.7,0
				c0.2,0,0.4,0,0.6,0c0.3,0,0.5,0,0.8,0c0.2,0,0.3,0,0.5,0c0.3,0,0.7,0,1,0c0.1,0,0.2,0,0.3,0c0.4,0,0.8-0.1,1.2-0.1
				c0.1,0,0.2,0,0.3,0c0.3,0,0.6-0.1,0.8-0.1c0.1,0,0.3,0,0.4,0c0.2,0,0.5-0.1,0.7-0.1c0.1,0,0.3,0,0.4-0.1c0.2,0,0.5-0.1,0.7-0.1
				c0.1,0,0.3,0,0.4-0.1c0.2,0,0.5-0.1,0.7-0.1c0.1,0,0.2,0,0.3-0.1c0.3-0.1,0.6-0.1,0.9-0.2c0,0,0,0,0.1,0c0.3-0.1,0.6-0.2,0.9-0.3
				c0.1,0,0.2-0.1,0.3-0.1c0.2-0.1,0.4-0.1,0.6-0.2c0.1,0,0.2-0.1,0.3-0.1c0.2-0.1,0.3-0.1,0.5-0.2c0,0,0,0,0.1,0
				c0.4,0.3,0.9,0.5,1.4,0.5c1.3,0,2.3-1,2.3-2.3C123.1,212.2,122.7,211.5,122,211.1z"/>
		</g>
		<g>
			<path class="st0" d="M104.8,219l-2.8,0c-0.4,0-0.9,0-1.3,0l-4.8-0.3c-1.5-0.1-2.8-0.3-3.9-0.4l-1.2-0.2c-0.7,0.5-1.6,0.8-2.6,0.8
				c-2.4,0-4.4-2-4.4-4.4c0-0.1,0-0.3,0-0.4c-3.2-6.4-3-19.3-2.3-26.6c-1.2-0.8-2-2.1-2-3.6c0-2.4,2-4.4,4.4-4.4
				c1.2,0,2.3,0.5,3.1,1.3c5-1.5,15.2-3.5,28.1-0.6c0.8-0.8,1.9-1.3,3.1-1.3c2.4,0,4.4,2,4.4,4.4c0,1-0.3,1.9-0.9,2.6
				c0.1,0.2,0.1,0.4,0.2,0.6l1.1,4.3c0.1,0.5,0.2,1,0.3,1.4l0.8,6.1c0,0.4,0.1,0.8,0.1,1.2l0,0.4c0,0.3,0,0.7,0.1,1l0.1,4.5
				c0,0.3,0,0.6,0,1l0,0.3c0,0.4,0,0.8-0.1,1.3l0,0.2c0,0.4,0,0.7-0.1,1l0,0.4c0,0.3,0,0.5-0.1,0.8l0,0.2c0.6,0.8,1,1.7,1,2.8
				c0,2.4-2,4.4-4.4,4.4c-0.5,0-1.1-0.1-1.6-0.3l0,0c-0.2,0.1-0.5,0.2-0.7,0.2l-0.3,0.1c-0.3,0.1-0.7,0.2-1,0.3
				c-0.4,0.1-0.7,0.2-1.1,0.2l-1.4,0.3c-0.4,0.1-0.6,0.1-0.9,0.1l-1.7,0.2c-0.3,0-0.6,0.1-0.9,0.1l-0.4,0c-0.4,0-0.8,0.1-1.2,0.1
				L104.8,219z M109.2,214.6l0.4,2.1l-0.1-2.1c0.4,0,0.8-0.1,1.2-0.1l4.6-0.6c0.3-0.1,0.6-0.1,0.9-0.2c0.4-0.1,0.6-0.2,0.9-0.2
				l0.3-0.1c0.2-0.1,0.4-0.1,0.5-0.2l0.2-0.1c0.2-0.1,0.3-0.1,0.5-0.2l1.2-0.5l1.1,0.8c0.2,0,0.3,0,0.3-0.1c0-0.1-0.1-0.1-0.1-0.1
				l-1.2-0.7l0.4-2.5c0-0.2,0-0.5,0.1-0.7l0-0.4c0-0.3,0-0.5,0.1-0.8l0-0.3c0-0.4,0-0.8,0-1.2l0-0.3c0-0.3,0-0.6,0-0.9l-0.2-5.5
				c0-0.4-0.1-0.8-0.1-1.1l-0.8-5.7c-0.1-0.4-0.2-0.8-0.2-1.2l-0.8-3.1l2-0.8l-2,0.6l-0.2-0.5l2-0.8l-2,0.7
				c-0.2-0.6-0.4-1.2-0.6-1.7l-0.5-1.2l-1.3-0.3c-14.1-3.5-24.8-0.7-28.7,0.7l-0.9,0.3l-0.1,0.8c-0.9,7.5-1.1,21.2,2,26.3l0.5,0.9
				l-0.3,1c0,0.2,0.2,0.2,0.3,0.1l0.8-1.1l3.4,0.5c1.2,0.2,2.4,0.3,3.7,0.4l4.7,0.3c0.4,0,0.8,0,1.3,0l3.1,0L109.2,214.6z M84,183.5
				c-0.1,0-0.2,0.1-0.2,0.2c0,0.1,0.1,0.1,0.1,0.1l0.2,0l-0.1-0.2C84.1,183.6,84.1,183.5,84,183.5z M118.2,182.9
				c-0.1,0-0.1,0.1-0.1,0.1l-0.1,0.3l0.3-0.2c0,0,0.1-0.1,0.1-0.1C118.4,182.9,118.3,182.9,118.2,182.9z"/>
		</g>
	</g>
	<g>
		<g>
			<path class="st21" d="M84.1,183.8c0,0,13-6.3,32-1.6c4.2-2.1,8.1,20.1,5.5,31.2c-5.8,5.3-29.1,3.2-34.4,1.6
				C82,210.2,83,190.1,84.1,183.8z"/>
		</g>
		<g>
			<circle class="st21" cx="118.2" cy="182.9" r="2.3"/>
		</g>
		<g>
			<circle class="st21" cx="84" cy="183.6" r="2.3"/>
		</g>
		<g>
			<circle class="st21" cx="120.9" cy="212.9" r="2.3"/>
		</g>
		<g>
			<circle class="st21" cx="88.2" cy="214.3" r="2.3"/>
		</g>
		<g class="st22">
			<g>
				<path class="st21" d="M121.6,213.4c2.2-9.4-0.2-26.8-3.6-30.6c-1.7,2.6-3.2,5.4-4.1,6.7c-6.8,9.5-14.3,18.7-23.3,26.2
					C98.9,217,116.6,217.9,121.6,213.4z"/>
			</g>
		</g>
	</g>
</g>
<g>
	<g>
		<g>
			<path class="st20" d="M146.2,86C146.2,86,146.2,86,146.2,86c-73.1-1.9-81-22.7-81-31.6c0-14.3,21.5-23.1,24-24.1
				c1.8-0.7,3.9,0.2,4.6,2c0.7,1.8-0.2,3.9-2,4.6c-5.1,2-19.5,9.5-19.5,17.5c0,10.9,19.4,23,74,24.5c2,0.1,3.5,1.7,3.4,3.6
				C149.7,84.5,148.1,86,146.2,86z"/>
		</g>
	</g>
	<g>
		<g>
			<path class="st20" d="M139.9,97.7c-0.8,0-1.6-0.3-2.3-0.9c-1.5-1.3-1.7-3.5-0.4-5l7.7-9l-8.8-9.3c-1.3-1.4-1.3-3.7,0.1-5
				c1.4-1.3,3.7-1.3,5,0.1l13.2,13.9l-11.8,13.8C141.9,97.2,140.9,97.7,139.9,97.7z"/>
		</g>
	</g>
	<g>
		<g>
			<path class="st20" d="M162,86.9c-1.8,0-3.4-1.4-3.5-3.3c-0.1-2,1.3-3.6,3.3-3.8c26.7-2,69.1-10.5,69.1-25.1
				c0-7.5-10.3-14.4-17.7-16.1c-1.9-0.4-3.1-2.3-2.7-4.2c0.4-1.9,2.3-3.1,4.2-2.7c9.4,2.1,23.2,10.8,23.2,23
				c0,25.8-67.9,31.6-75.7,32.2C162.1,86.9,162,86.9,162,86.9z"/>
		</g>
	</g>
</g>
</svg>
