<?xml version="1.0" encoding="utf-8"?>
<!-- Generator: Adobe Illustrator 21.0.0, SVG Export Plug-In . SVG Version: 6.00 Build 0)  -->
<svg version="1.1" id="Layer_1" xmlns="http://www.w3.org/2000/svg" xmlns:xlink="http://www.w3.org/1999/xlink" x="0px" y="0px"
	 viewBox="0 0 300 260" style="enable-background:new 0 0 300 260;" xml:space="preserve">
<style type="text/css">
	.st0{opacity:0.35;}
	.st1{fill:#8CCEEF;}
	.st2{opacity:0.3;}
	.st3{opacity:0.4;}
	.st4{fill:#3D7C95;}
	.st5{fill:#EEA050;}
	.st6{fill:#FFFFFF;}
	.st7{fill:#F7FBFC;}
</style>
<g class="st0">
	<g>
		<path class="st1" d="M194.6,14.5C194.5,14.5,194.5,14.5,194.6,14.5c-0.5,0.3-0.8,0.6-1.1,0.9c-0.1,0.1-0.1,0.2-0.1,0.3
			c0,1-0.1,2-0.3,2.9c-0.1,0.7-0.3,1.4-0.6,2.1c-0.2,0.5-0.5,1.1-0.7,1.6c-0.5,1-1.2,2-2,2.9c-0.9,1.1-2,2-3.2,2.9
			c-1.2,0.9-2.6,1.6-4,2.1c-1.1,0.4-2.3,0.7-3.5,0.9c-0.9,0.1-1.7,0.2-2.6,0.2c-1.4,0-2.9-0.1-4.3-0.5c-0.8-0.2-1.5-0.4-2.3-0.7
			c-1.3-0.5-2.5-1.1-3.6-1.9c-1.5-1.1-2.8-2.4-3.8-4.1c-0.1-0.2-0.2-0.4-0.3-0.6c0,0,0.1,0,0.1,0.1c0.5,0.7,1,1.4,1.6,2
			c1.3,1.4,2.7,2.5,4.4,3.3c0.7,0.4,1.5,0.7,2.2,0.9c0.9,0.3,1.8,0.5,2.8,0.6c0.6,0.1,1.2,0.2,1.8,0.2c1.5,0.1,3,0,4.5-0.3
			c0.8-0.2,1.6-0.4,2.4-0.7c0.8-0.3,1.6-0.6,2.4-1.1c1.2-0.6,2.3-1.4,3.3-2.3c1.4-1.3,2.6-2.7,3.5-4.5c0.1-0.3,0.2-0.5,0.4-0.8
			c0,0,0,0,0-0.1c-0.3,0.1-0.6,0.2-0.9,0.3c-0.5,0.2-0.9,0.5-1.4,0.7c-0.5,0.3-1.1,0.5-1.6,0.4c-0.3,0-0.6-0.1-0.9-0.1
			c-0.1,0.2,0.1,0.6,0.4,0.8c0.4,0.3,0.8,0.4,1.2,0.5c0,0,0,0.1-0.1,0.1c-0.9,0.6-2,1.1-3,1.4c-1.1,0.4-2.3,0.4-3.4,0.3
			c-0.8-0.1-1.6-0.1-2.3-0.1c-0.1,0-0.1,0-0.2,0c0.2,0.2,0.3,0.3,0.5,0.5c0.2,0.3,0.5,0.6,0.7,1c0.3,0.5,0.7,1,1.2,1.3
			c0,0,0,0,0,0.1c-0.1,0-0.2,0-0.3,0c-0.5-0.1-1-0.1-1.4-0.2c-0.5-0.1-0.9-0.2-1.4-0.3c-0.5-0.1-1-0.2-1.5-0.5
			c-0.7-0.3-1.3-0.7-1.9-1.1c-0.5-0.3-0.9-0.6-1.4-0.9c0,0.1,0.1,0.3,0.2,0.4c0.2,0.5,0.3,1,0.4,1.5c0.1,0.4,0.1,0.8,0.2,1.2
			c0,0.2,0.1,0.4,0.2,0.7c-0.2-0.2-0.3-0.3-0.5-0.5c-0.8-0.9-1.5-1.8-2.3-2.7c-0.8-0.9-1.7-1.7-2.8-2.4c-0.3-0.2-0.5-0.3-0.8-0.4
			c0,0,0,0,0,0c0.2,0.4,0.4,0.8,0.5,1.3c0.1,0.4,0.1,0.8,0,1.3c0,0.1-0.1,0.3-0.3,0.2l0,0c0-0.1,0-0.2,0-0.3
			c-0.2-0.8-0.6-1.6-1.2-2.2c-0.5-0.6-1-1-1.7-1.3c-0.8-0.3-1.6-0.6-2.5-0.7c-0.6-0.1-1.2-0.2-1.8-0.1c-0.2,0-0.5,0.1-0.6,0.3
			c-0.2,0.5-0.3,1-0.2,1.5c0.1,0.4,0.1,0.8,0.2,1.2c0.2,0.8,0.4,1.5,0.9,2.2c0.6,0.8,1.3,1.3,2.2,1.6c0.2,0.1,0.4,0.1,0.7,0.2
			c-0.8,0.7-1.7,0.5-2.7,0.3c0,0,0,0.1,0.1,0.1c0.3,0.4,0.6,0.8,0.9,1.2c0.7,0.9,1.5,1.7,2.4,2.3c0.7,0.4,1.4,0.8,2.2,1.1
			c0.7,0.3,1.4,0.6,2.2,0.8c0.2,0,0.3,0,0.5,0.1c0.3,0.1,0.3,0.1,0.4-0.2c0,0.1,0,0.1,0,0.2c0,0,0.1,0.1,0.1,0.1
			c0.7,0.1,1.4,0.1,2.1,0c0.5-0.1,1-0.1,1.6-0.3c0.6-0.2,1.2-0.3,1.7-0.6c0.3-0.1,0.7-0.3,1-0.5c0,0,0,0,0,0.1
			c-0.3,0.4-0.6,0.6-1,0.8c-0.8,0.4-1.6,0.7-2.3,1.1c-0.2,0.1-0.4,0.2-0.6,0.3c-0.1,0.1-0.1,0.2,0,0.3c0.2,0.1,0.3,0.1,0.5,0.2
			c1.1,0.3,2.2,0.5,3.3,0.6c1.3,0.1,2.5,0,3.8-0.2c1-0.2,2-0.6,2.9-1.3c0.6-0.5,1.1-1,1.4-1.6l0,0c0,0,0,0,0,0
			c0.1-0.3,0.3-0.6,0.3-0.9c0.1-0.2,0.1-0.4,0.2-0.7c0.1,0.4,0.1,0.7,0,1.1c0,0.6-0.2,1.2-0.4,1.8c0.1,0,0.1,0,0.1,0
			c1.5-0.7,2.8-1.5,4-2.7c1.3-1.3,2.3-2.7,2.8-4.5c0.2-0.6,0.2-1.2,0.1-1.8c0-0.1,0-0.2-0.1-0.3c0.7,0.6,0.9,1.4,0.7,2.2
			c0,0,0.1-0.1,0.1-0.1c0.3-0.6,0.6-1.2,0.9-1.8c0.2-0.6,0.3-1.1,0.4-1.8c0-0.7-0.1-1.3-0.3-1.9c0-0.2-0.1-0.4-0.1-0.6
			c0.3-0.8,0.5-1.5,0.7-2.3c0.1-0.6,0.2-1.2,0.3-1.8c0.1-0.6,0.1-1.2,0.1-1.8C194.6,14.7,194.6,14.6,194.6,14.5z"/>
	</g>
</g>
<g class="st2">
	<g>
		<path class="st1" d="M74.6,129.3c-0.1,0-0.1,0-0.1,0c-0.6,0.4-1.1,0.9-1.5,1.4c-0.1,0.1-0.2,0.3-0.2,0.5c0,1.5-0.1,3-0.4,4.5
			c-0.2,1.1-0.5,2.1-0.9,3.2c-0.3,0.8-0.7,1.6-1.1,2.4c-0.8,1.6-1.9,3.1-3,4.4c-1.4,1.7-3.1,3.1-4.9,4.4c-1.9,1.3-4,2.4-6.2,3.2
			c-1.8,0.6-3.5,1.1-5.4,1.4c-1.3,0.2-2.7,0.3-4,0.3c-2.2,0-4.4-0.2-6.5-0.7c-1.2-0.3-2.4-0.7-3.5-1.1c-2-0.7-3.8-1.7-5.5-2.9
			c-2.4-1.7-4.3-3.7-5.9-6.2c-0.2-0.3-0.3-0.6-0.5-0.9c0.1,0,0.1,0.1,0.1,0.1c0.7,1.1,1.6,2.1,2.5,3.1c1.9,2.1,4.1,3.8,6.7,5.1
			c1.1,0.5,2.3,1,3.4,1.4c1.4,0.5,2.8,0.8,4.2,1c0.9,0.1,1.8,0.2,2.7,0.3c2.3,0.1,4.6,0,6.9-0.4c1.3-0.2,2.5-0.6,3.7-1
			c1.3-0.4,2.5-1,3.7-1.6c1.8-1,3.5-2.1,5-3.5c2.2-2,4.1-4.2,5.3-6.9c0.2-0.4,0.4-0.8,0.5-1.2c0,0,0-0.1,0-0.1
			c-0.5,0.1-0.9,0.2-1.4,0.4c-0.7,0.3-1.4,0.7-2.1,1.1c-0.8,0.4-1.6,0.7-2.5,0.7c-0.4,0-0.9-0.1-1.3-0.2c-0.1,0.4,0.2,0.9,0.6,1.2
			c0.5,0.4,1.2,0.7,1.8,0.8c0,0-0.1,0.1-0.1,0.1c-1.5,0.9-3,1.7-4.6,2.2c-1.7,0.6-3.5,0.6-5.3,0.4c-1.2-0.1-2.4-0.2-3.6-0.2
			c-0.1,0-0.2,0-0.3,0c0.3,0.3,0.5,0.5,0.7,0.8c0.4,0.5,0.7,1,1.1,1.5c0.5,0.7,1,1.5,1.8,1.9c0,0,0,0.1,0,0.1c-0.2,0-0.3,0-0.5-0.1
			c-0.7-0.1-1.5-0.2-2.2-0.3c-0.7-0.1-1.5-0.3-2.2-0.4c-0.8-0.1-1.5-0.4-2.3-0.7c-1-0.5-2-1.1-2.9-1.7c-0.7-0.5-1.4-1-2.2-1.5
			c0.1,0.2,0.2,0.4,0.3,0.6c0.3,0.7,0.4,1.5,0.5,2.3c0.1,0.6,0.2,1.3,0.3,1.9c0.1,0.3,0.2,0.6,0.3,1c-0.3-0.3-0.5-0.5-0.7-0.8
			c-1.2-1.4-2.4-2.8-3.6-4.2c-1.2-1.4-2.6-2.7-4.2-3.7c-0.4-0.2-0.8-0.4-1.2-0.7c0,0,0,0,0,0.1c0.4,0.6,0.6,1.3,0.7,2
			c0.1,0.7,0.2,1.3,0,1.9c-0.1,0.2-0.1,0.4-0.4,0.4l0,0c0-0.2,0-0.3-0.1-0.4c-0.4-1.3-0.9-2.4-1.8-3.4c-0.7-0.8-1.6-1.6-2.6-2
			c-1.2-0.5-2.5-0.9-3.8-1.1c-0.9-0.2-1.9-0.2-2.8-0.1c-0.4,0.1-0.8,0.1-1,0.5c-0.3,0.7-0.5,1.5-0.4,2.3c0.1,0.6,0.2,1.2,0.3,1.8
			c0.3,1.2,0.7,2.3,1.4,3.3c0.9,1.2,2,2,3.4,2.4c0.3,0.1,0.7,0.2,1.1,0.3c-1.3,1.1-2.7,0.8-4.1,0.4c0,0.1,0.1,0.1,0.1,0.2
			c0.5,0.6,0.9,1.3,1.4,1.9c1,1.4,2.3,2.6,3.7,3.5c1.1,0.7,2.2,1.2,3.3,1.7c1.1,0.4,2.2,0.9,3.3,1.2c0.2,0.1,0.5,0,0.7,0.1
			c0.4,0.1,0.4,0.2,0.5-0.3c0,0.1,0,0.2,0.1,0.2c0.1,0.1,0.1,0.2,0.2,0.2c1.1,0.1,2.2,0.1,3.3-0.1c0.8-0.1,1.6-0.2,2.4-0.4
			c0.9-0.2,1.8-0.5,2.7-0.9c0.5-0.2,1-0.5,1.5-0.8c0,0,0,0.1-0.1,0.1c-0.4,0.6-1,0.9-1.6,1.2c-1.2,0.6-2.4,1.1-3.6,1.7
			c-0.3,0.1-0.6,0.3-0.9,0.5c-0.2,0.2-0.2,0.3,0.1,0.4c0.2,0.1,0.5,0.2,0.7,0.3c1.7,0.5,3.4,0.8,5.1,1c1.9,0.1,3.9,0.1,5.8-0.4
			c1.6-0.4,3.1-1,4.4-2c0.9-0.7,1.6-1.5,2.1-2.5l0,0c0,0,0,0,0,0c0.2-0.4,0.4-0.9,0.5-1.3c0.1-0.3,0.2-0.7,0.3-1
			c0.1,0.6,0.1,1.1,0.1,1.7c0,0.9-0.3,1.8-0.7,2.7c0.1,0,0.1,0,0.2,0c2.3-1.1,4.4-2.4,6.2-4.1c2-2,3.6-4.2,4.3-6.9
			c0.2-0.9,0.4-1.8,0.1-2.7c0-0.1-0.1-0.3-0.1-0.4c1.1,0.9,1.3,2.1,1.1,3.4c0.1-0.1,0.1-0.1,0.2-0.2c0.5-0.9,1-1.8,1.3-2.7
			c0.3-0.9,0.5-1.8,0.5-2.7c0-1-0.2-2-0.4-3c-0.1-0.3-0.2-0.6-0.1-0.9c0.4-1.2,0.8-2.4,1-3.6c0.2-0.9,0.3-1.8,0.4-2.8
			c0.1-0.9,0.1-1.9,0.1-2.8C74.7,129.6,74.6,129.4,74.6,129.3z"/>
	</g>
</g>
<g class="st3">
	<g>
		<path class="st1" d="M269.5,179C269.5,179,269.5,179,269.5,179c-0.5,0.3-0.8,0.6-1.1,0.9c-0.1,0.1-0.1,0.2-0.1,0.3
			c0,1-0.1,2-0.3,2.9c-0.1,0.7-0.3,1.4-0.6,2.1c-0.2,0.5-0.5,1.1-0.7,1.6c-0.5,1-1.2,2-2,2.9c-0.9,1.1-2,2-3.2,2.9
			c-1.2,0.9-2.6,1.6-4,2.1c-1.1,0.4-2.3,0.7-3.5,0.9c-0.9,0.1-1.7,0.2-2.6,0.2c-1.4,0-2.9-0.1-4.3-0.5c-0.8-0.2-1.5-0.4-2.3-0.7
			c-1.3-0.5-2.5-1.1-3.6-1.9c-1.5-1.1-2.8-2.4-3.8-4.1c-0.1-0.2-0.2-0.4-0.3-0.6c0,0,0.1,0,0.1,0.1c0.5,0.7,1,1.4,1.6,2
			c1.3,1.4,2.7,2.5,4.4,3.3c0.7,0.4,1.5,0.7,2.2,0.9c0.9,0.3,1.8,0.5,2.8,0.6c0.6,0.1,1.2,0.2,1.8,0.2c1.5,0.1,3,0,4.5-0.3
			c0.8-0.2,1.6-0.4,2.4-0.7c0.8-0.3,1.6-0.6,2.4-1.1c1.2-0.6,2.3-1.4,3.3-2.3c1.4-1.3,2.6-2.7,3.5-4.5c0.1-0.3,0.2-0.5,0.4-0.8
			c0,0,0,0,0-0.1c-0.3,0.1-0.6,0.2-0.9,0.3c-0.5,0.2-0.9,0.5-1.4,0.7c-0.5,0.3-1.1,0.5-1.6,0.4c-0.3,0-0.6-0.1-0.9-0.1
			c-0.1,0.2,0.1,0.6,0.4,0.8c0.4,0.3,0.8,0.4,1.2,0.5c0,0,0,0.1-0.1,0.1c-0.9,0.6-2,1.1-3,1.4c-1.1,0.4-2.3,0.4-3.4,0.3
			c-0.8-0.1-1.6-0.1-2.3-0.1c-0.1,0-0.1,0-0.2,0c0.2,0.2,0.3,0.3,0.5,0.5c0.2,0.3,0.5,0.6,0.7,1c0.3,0.5,0.7,1,1.2,1.3
			c0,0,0,0,0,0.1c-0.1,0-0.2,0-0.3,0c-0.5-0.1-1-0.1-1.4-0.2c-0.5-0.1-0.9-0.2-1.4-0.3c-0.5-0.1-1-0.2-1.5-0.5
			c-0.7-0.3-1.3-0.7-1.9-1.1c-0.5-0.3-0.9-0.6-1.4-0.9c0,0.1,0.1,0.3,0.2,0.4c0.2,0.5,0.3,1,0.4,1.5c0.1,0.4,0.1,0.8,0.2,1.2
			c0,0.2,0.1,0.4,0.2,0.7c-0.2-0.2-0.3-0.3-0.5-0.5c-0.8-0.9-1.5-1.8-2.3-2.7c-0.8-0.9-1.7-1.7-2.8-2.4c-0.3-0.2-0.5-0.3-0.8-0.4
			c0,0,0,0,0,0c0.2,0.4,0.4,0.8,0.5,1.3c0.1,0.4,0.1,0.8,0,1.3c0,0.1-0.1,0.3-0.3,0.2l0,0c0-0.1,0-0.2,0-0.3
			c-0.2-0.8-0.6-1.6-1.2-2.2c-0.5-0.6-1-1-1.7-1.3c-0.8-0.3-1.6-0.6-2.5-0.7c-0.6-0.1-1.2-0.2-1.8-0.1c-0.2,0-0.5,0.1-0.6,0.3
			c-0.2,0.5-0.3,1-0.2,1.5c0.1,0.4,0.1,0.8,0.2,1.2c0.2,0.8,0.4,1.5,0.9,2.2c0.6,0.8,1.3,1.3,2.2,1.6c0.2,0.1,0.4,0.1,0.7,0.2
			c-0.8,0.7-1.7,0.5-2.7,0.3c0,0,0,0.1,0.1,0.1c0.3,0.4,0.6,0.8,0.9,1.2c0.7,0.9,1.5,1.7,2.4,2.3c0.7,0.4,1.4,0.8,2.2,1.1
			c0.7,0.3,1.4,0.6,2.2,0.8c0.2,0,0.3,0,0.5,0.1c0.3,0.1,0.3,0.1,0.4-0.2c0,0.1,0,0.1,0,0.2c0,0,0.1,0.1,0.1,0.1
			c0.7,0.1,1.4,0.1,2.1,0c0.5-0.1,1-0.1,1.6-0.3c0.6-0.2,1.2-0.3,1.7-0.6c0.3-0.1,0.7-0.3,1-0.5c0,0,0,0,0,0.1
			c-0.3,0.4-0.6,0.6-1,0.8c-0.8,0.4-1.6,0.7-2.3,1.1c-0.2,0.1-0.4,0.2-0.6,0.3c-0.1,0.1-0.1,0.2,0,0.3c0.2,0.1,0.3,0.1,0.5,0.2
			c1.1,0.3,2.2,0.5,3.3,0.6c1.3,0.1,2.5,0,3.8-0.2c1-0.2,2-0.6,2.9-1.3c0.6-0.5,1.1-1,1.4-1.6l0,0c0,0,0,0,0,0
			c0.1-0.3,0.3-0.6,0.3-0.9c0.1-0.2,0.1-0.4,0.2-0.7c0.1,0.4,0.1,0.7,0,1.1c0,0.6-0.2,1.2-0.4,1.8c0.1,0,0.1,0,0.1,0
			c1.5-0.7,2.8-1.5,4-2.7c1.3-1.3,2.3-2.7,2.8-4.5c0.2-0.6,0.2-1.2,0.1-1.8c0-0.1,0-0.2-0.1-0.3c0.7,0.6,0.9,1.4,0.7,2.2
			c0,0,0.1-0.1,0.1-0.1c0.3-0.6,0.6-1.2,0.9-1.8c0.2-0.6,0.3-1.1,0.4-1.8c0-0.7-0.1-1.3-0.3-1.9c0-0.2-0.1-0.4-0.1-0.6
			c0.3-0.8,0.5-1.5,0.7-2.3c0.1-0.6,0.2-1.2,0.3-1.8c0.1-0.6,0.1-1.2,0.1-1.8C269.6,179.2,269.5,179.1,269.5,179z"/>
	</g>
</g>
<g>
	<g>
		<g>
			<path class="st4" d="M135.3,102.3c-0.3-0.6-6.8-14.4,1.1-22.8c7.2-7.6-0.5-20-0.6-20.2l1.2-0.8c0.3,0.5,8.3,13.5,0.4,21.9
				c-7.2,7.7-0.9,21.1-0.8,21.2L135.3,102.3z"/>
		</g>
	</g>
	<g>
		<g>
			<path class="st5" d="M136.4,55.6l-2.3,4.6c-0.3,0.6,0.1,1.4,0.9,1.4h4.9c0.7,0,1.2-0.8,0.8-1.4l-2.6-4.6
				C137.7,54.9,136.7,54.9,136.4,55.6z"/>
		</g>
		<g>
			<path class="st4" d="M139.8,62.3h-4.9c-0.6,0-1.1-0.3-1.4-0.8c-0.3-0.5-0.3-1.1-0.1-1.6l2.3-4.6c0.3-0.6,0.8-0.9,1.5-0.9
				c0.6,0,1.2,0.3,1.5,0.9l2.6,4.6c0.3,0.5,0.3,1.1,0,1.7C141,62,140.4,62.3,139.8,62.3z M137.2,55.8c0,0-0.2,0-0.2,0.1l-2.3,4.6
				c-0.1,0.1,0,0.2,0,0.3c0,0,0.1,0.1,0.2,0.1h4.9c0.1,0,0.2-0.1,0.2-0.1c0,0,0.1-0.1,0-0.3l-2.6-4.6
				C137.4,55.8,137.3,55.8,137.2,55.8z"/>
		</g>
	</g>
	<g>
		<g>
			<ellipse class="st5" cx="136.5" cy="37.2" rx="15.8" ry="19.4"/>
		</g>
		<g>
			<path class="st4" d="M136.5,57.3c-9.1,0-16.5-9-16.5-20.1c0-11.1,7.4-20.1,16.5-20.1c9.1,0,16.5,9,16.5,20.1
				C153,48.3,145.6,57.3,136.5,57.3z M136.5,18.5c-8.3,0-15,8.4-15,18.7s6.8,18.7,15,18.7s15-8.4,15-18.7S144.8,18.5,136.5,18.5z"/>
		</g>
	</g>
</g>
<g>
	<g>
		<g>
			<path class="st4" d="M232.5,205.6l-1.4-0.2c0.1-0.6,2.5-15.7,13.7-18.2c10.2-2.2,10.9-16.8,10.9-17l1.4,0.1
				c0,0.6-0.7,15.8-12,18.3C234.8,190.8,232.5,205.4,232.5,205.6z"/>
		</g>
	</g>
	<g>
		<g>
			<path class="st5" d="M258.4,167.4l-4.5,2.5c-0.6,0.4-0.7,1.2-0.1,1.6l4,2.8c0.6,0.4,1.4,0,1.5-0.7l0.5-5.3
				C259.9,167.6,259.1,167,258.4,167.4z"/>
		</g>
		<g>
			<path class="st4" d="M258.3,175.2c-0.3,0-0.7-0.1-0.9-0.3l-4-2.8c-0.5-0.3-0.8-0.9-0.7-1.5c0-0.6,0.3-1.1,0.9-1.4l4.5-2.5
				c0.5-0.3,1.2-0.3,1.7,0.1c0.5,0.3,0.8,0.9,0.8,1.6l-0.5,5.3c-0.1,0.6-0.4,1.1-1,1.4C258.8,175.2,258.6,175.2,258.3,175.2z
				 M258.7,168l-4.5,2.5c-0.1,0.1-0.1,0.2-0.1,0.2c0,0.1,0,0.2,0.1,0.2l4,2.8c0.1,0.1,0.2,0,0.3,0c0.1,0,0.1-0.1,0.2-0.2l0.5-5.3
				c0-0.1-0.1-0.2-0.1-0.2C258.9,168,258.8,168,258.7,168L258.7,168z"/>
		</g>
	</g>
	<g>
		<g>
			
				<ellipse transform="matrix(0.5647 -0.8253 0.8253 0.5647 -8.6592 288.2127)" class="st5" cx="268.9" cy="152.3" rx="19.4" ry="15.8"/>
		</g>
		<g>
			<path class="st4" d="M265.6,171.3c-2.9,0-5.7-0.8-8.1-2.4c-3.7-2.5-5.9-6.6-6.3-11.5c-0.4-4.9,1-10,4.1-14.4
				c3-4.4,7.3-7.6,11.9-9c4.7-1.4,9.4-0.8,13,1.7c7.5,5.1,8.5,16.7,2.2,25.9l0,0C278.2,167.8,271.7,171.3,265.6,171.3z M272.2,134.7
				c-1.5,0-3,0.2-4.5,0.7c-4.4,1.3-8.3,4.3-11.2,8.4c-2.8,4.1-4.2,8.9-3.8,13.5c0.4,4.5,2.4,8.2,5.7,10.5c6.8,4.7,17.2,1.6,23-6.9
				c5.8-8.5,5-19.2-1.9-23.9C277.3,135.4,274.8,134.7,272.2,134.7z"/>
		</g>
	</g>
</g>
<g>
	<g>
		<g>
			<path class="st4" d="M18.3,88.4C18,87.8,11.5,74,19.4,65.6c7.2-7.6-0.5-20-0.6-20.2l1.2-0.8c0.3,0.5,8.3,13.5,0.4,21.9
				c-7.2,7.7-0.9,21.1-0.8,21.2L18.3,88.4z"/>
		</g>
	</g>
	<g>
		<g>
			<path class="st5" d="M19.4,41.7l-2.3,4.6c-0.3,0.6,0.1,1.4,0.9,1.4h4.9c0.7,0,1.2-0.8,0.8-1.4l-2.6-4.6
				C20.8,40.9,19.8,41,19.4,41.7z"/>
		</g>
		<g>
			<path class="st4" d="M22.9,48.4H18c-0.6,0-1.1-0.3-1.4-0.8c-0.3-0.5-0.3-1.1-0.1-1.6l2.3-4.6c0.3-0.6,0.8-0.9,1.5-0.9
				c0.6,0,1.2,0.3,1.5,0.9l2.6,4.6c0.3,0.5,0.3,1.1,0,1.7C24,48.1,23.5,48.4,22.9,48.4z M20.1,42l-2.3,4.6c-0.1,0.1,0,0.2,0,0.3
				S17.8,47,18,47h4.9c0.1,0,0.2-0.1,0.2-0.1c0,0,0.1-0.1,0-0.3L20.5,42c-0.1-0.1-0.2-0.1-0.2-0.1C20.2,41.8,20.1,41.8,20.1,42
				L20.1,42z"/>
		</g>
	</g>
	<g>
		<g>
			<ellipse class="st5" cx="19.6" cy="23.2" rx="15.8" ry="19.4"/>
		</g>
		<g>
			<path class="st4" d="M19.6,43.4c-9.1,0-16.5-9-16.5-20.1S10.5,3.1,19.6,3.1c9.1,0,16.5,9,16.5,20.1S28.7,43.4,19.6,43.4z
				 M19.6,4.5c-8.3,0-15,8.4-15,18.7S11.3,42,19.6,42c8.3,0,15-8.4,15-18.7S27.9,4.5,19.6,4.5z"/>
		</g>
	</g>
	<g>
		<g>
			<path class="st6" d="M8.6,32.6c-0.2,0-0.4-0.1-0.5-0.3C0.3,18.2,13.4,7.2,13.5,7.1c0.2-0.2,0.6-0.2,0.7,0.1
				c0.2,0.2,0.2,0.6-0.1,0.7C13.7,8.3,1.6,18.5,9.1,31.9c0.1,0.3,0.1,0.6-0.2,0.7C8.8,32.6,8.7,32.6,8.6,32.6z"/>
		</g>
	</g>
</g>
<g>
	<g>
		<path class="st6" d="M148.6,31.7c-0.2,0-0.5-0.2-0.5-0.4c-2.4-10.3-11.3-11.2-11.4-11.2c-0.3,0-0.5-0.3-0.5-0.6
			c0-0.3,0.3-0.5,0.6-0.5c0.1,0,9.8,1.1,12.4,12.1c0.1,0.3-0.1,0.6-0.4,0.6C148.6,31.7,148.6,31.7,148.6,31.7z"/>
	</g>
</g>
<g>
	<g>
		<path class="st6" d="M277.5,162.4c-0.2,0-0.3-0.1-0.4-0.2c-0.2-0.2-0.2-0.6,0.1-0.7c7.2-6,4.8-17.8,4.8-17.9
			c-0.1-0.3,0.1-0.6,0.4-0.6c0.3-0.1,0.6,0.1,0.6,0.4c0.1,0.5,2.6,12.6-5.1,19C277.8,162.4,277.7,162.4,277.5,162.4z"/>
	</g>
</g>
<g>
	<g>
		<path class="st4" d="M18.9,212.4c-0.1,0-0.1,0-0.2-0.1c-2.1-1.6-6.8-8.2-9.3-14.9c-0.1-0.2,0-0.4,0.2-0.5c0.2-0.1,0.4,0,0.5,0.2
			c2.5,6.6,7.1,13.1,9.1,14.6c0.2,0.1,0.2,0.3,0.1,0.5C19.1,212.3,19,212.4,18.9,212.4z"/>
	</g>
</g>
<g>
	<g>
		<path class="st4" d="M26.1,210.8c-0.1,0-0.2-0.1-0.3-0.2l-0.3-0.4c-2.4-3.5-6.1-8.7-5.2-13c0.4-1.7,1.4-3.1,3.2-4.1
			c1.1-0.7,2.3-0.8,3.2-0.4c0.9,0.4,1.5,1.4,1.6,2.7c0,0.2-0.1,0.4-0.3,0.4c-0.2,0-0.4-0.1-0.4-0.3c-0.1-1-0.6-1.8-1.2-2.1
			c-0.7-0.3-1.6-0.2-2.5,0.3c-1.6,0.9-2.5,2.1-2.9,3.6c-0.9,4,2.7,9.1,5.1,12.4l0.3,0.4c0.1,0.2,0.1,0.4-0.1,0.5
			C26.2,210.8,26.2,210.8,26.1,210.8z"/>
	</g>
</g>
<g>
	<g>
		<path class="st4" d="M23.8,213.9c-0.1,0-0.2,0-0.3-0.1c-0.4-0.4-9.6-10.6-9.4-17c0.1-3.8-0.8-6.7-2.6-8.4c-1.4-1.4-3.5-1.9-6-1.7
			c-2.4,0.2-3.3,1.4-3.7,2.4c-0.6,1.4-0.3,3.2,0.6,4.3c0.4,0.5,1.1,1,2,0.8c0.2,0,0.4,0.1,0.4,0.3c0,0.2-0.1,0.4-0.3,0.4
			c-1,0.2-2-0.1-2.7-1c-1.1-1.3-1.4-3.3-0.7-5c0.7-1.7,2.2-2.7,4.3-2.9c2.7-0.3,4.9,0.4,6.5,1.9c2,1.8,2.9,4.9,2.8,8.9
			c-0.2,6.1,9.1,16.4,9.2,16.5c0.1,0.1,0.1,0.4,0,0.5C24,213.9,23.9,213.9,23.8,213.9z"/>
	</g>
</g>
<g id="XMLID_81_">
	<g>
		<path class="st1" d="M33.7,236.5c3.6,0.7,15.3,2.5,24.2,1.1c-2.7-3.5-9.7-6.6-17.9-8.8c-11.9-2.6-30.3-5.3-31.3-3.9
			c-0.3,0.3,0,1.2,0.6,2.5c0.6,1.1,1.6,1.9,2.8,2.3l4.5,1.4l-3.8,0.2c-0.2,0-0.3,0.1-0.4,0.3c-0.1,0.1,0,0.3,0.1,0.4
			c3.5,4.4,9.1,9.7,15.3,12.7c1.3,0.6,2.8,0.6,4.1,0l5.1-2.4l-3.8,3.8c-0.1,0.1-0.1,0.3-0.1,0.4c0,0.1,0.2,0.3,0.3,0.3
			c1.3,0.4,2.6,0.7,3.8,0.9c1.3,0.2,2.7-0.1,3.7-0.9l5.4-4.2l-3.1,5c-0.1,0.1-0.1,0.3,0,0.4c0.1,0.1,0.2,0.2,0.4,0.2
			c6.2,0,11.6-1.7,14-4.3c8.4-0.1,16.2-2.3,22.4-5.4c0.2-0.1,0.3-0.3,0.2-0.5c-0.1-0.2-0.3-0.3-0.5-0.3
			C72.2,239.1,61.2,243.2,33.7,236.5L33.7,236.5z M33.7,236.5"/>
	</g>
	<g>
		<path class="st4" d="M43.7,248.9c-0.4,0-0.8-0.2-1-0.6c-0.2-0.4-0.2-0.8,0-1.2l0.9-1.5l-2.1,1.7c-1.2,1-2.8,1.3-4.3,1.1
			c-1.3-0.2-2.6-0.5-3.9-0.9c-0.4-0.1-0.7-0.4-0.8-0.8c-0.1-0.4,0-0.8,0.3-1.1l0.9-0.9l-1.4,0.7c-1.5,0.7-3.2,0.7-4.7,0
			c-5.3-2.6-11.2-7.4-15.6-13c-0.3-0.3-0.3-0.8-0.2-1.2c0.1-0.3,0.4-0.6,0.8-0.6l-0.6-0.2c-1.4-0.4-2.5-1.4-3.2-2.7
			c-0.9-1.6-1-2.7-0.6-3.3c1.7-2.2,25.8,2.3,32.1,3.7c6.6,1.8,15,4.9,18.3,9.1l0.7,1l-1.2,0.2c-2.4,0.4-5,0.6-7.6,0.6
			c13.4,1.6,21-0.1,26.5-1.3c1-0.2,1.9-0.4,2.7-0.6c0.6-0.1,1.1,0.2,1.3,0.8c0.2,0.5-0.1,1.2-0.6,1.4c-4.8,2.4-12.6,5.3-22.4,5.5
			C55.3,247.2,49.9,248.9,43.7,248.9z M48.7,240.1l-4.5,7.3c5.8-0.1,10.7-1.6,12.9-4l0.2-0.2l0.3,0c8.2-0.1,14.9-2.1,19.6-4.2
			c0,0,0,0,0,0C71.4,240.2,63.3,242,48.7,240.1z M34.2,246.1c1.1,0.3,2.2,0.5,3.3,0.7c1.1,0.2,2.3-0.1,3.2-0.8l7.7-6
			c-4.3-0.6-9.2-1.5-14.7-2.9l0.3-1.4c4.5,0.9,14.6,2.2,22.6,1.3c-2.8-2.7-8.6-5.4-16.6-7.6c-12.7-2.8-28.3-4.8-30.5-4.2
			c0,0.2,0.2,0.7,0.7,1.6c0.5,0.9,1.3,1.6,2.3,1.9l8.4,2.7l-7.3,0.3c4.2,5.2,9.7,9.7,14.7,12.1c1.1,0.5,2.4,0.5,3.5,0l8.9-4.2
			L34.2,246.1z M79.7,237.8C79.7,237.8,79.7,237.8,79.7,237.8C79.7,237.8,79.7,237.8,79.7,237.8z M13,231.4
			C13,231.4,13,231.4,13,231.4z M9.2,225.3L9.2,225.3L9.2,225.3z"/>
	</g>
</g>
<g id="XMLID_1247_">
	<g>
		<path class="st1" d="M276.5,254c9.5,1.1,18.6-8.7,18.6-10.5c0-1.1-3.8,0.1-9-1.4c-1.6,1.2-3.2,2.3-4.8,3.2c1-1.2,1.9-2.4,2.9-3.7
			c-2.2-0.8-4.6-1.9-7-3.3c-3,1.2-5.9,2-8.9,2.8c1.7-1.6,3.4-3.3,5.1-5c-3.7-2.3-7.5-4.6-10.8-6c-2.2-0.9-4.8-0.9-7,0.1
			c-2.1,1-4.3,2.1-6.4,3.6c1.5-2,3-3.9,4.5-5.7c-7.9-0.1-14,7.2-15.1,11.7c-1.7,1.7-2.8,3.3-3.2,4.1c-1.5,2.5-2.6,4.8-3.5,8.3
			c0,0,5.6-6.7,5.6-6.7c0.4-0.5,1.1-1.3,2.1-2.2c2.2,1.4,7,1.2,13.1,3.6c-1.3-2.2-2.6-4.3-3.9-6.3c2.3,1.6,4.5,3.5,6.7,5.8
			c1.7,1.7,3.8,3.1,6,4c3.9,1.6,8.3,3.1,12.7,3.5c-0.8-1.5-1.6-3.1-2.4-4.6C273.6,250.9,275.1,252.5,276.5,254L276.5,254z
			 M276.5,254"/>
	</g>
	<g>
		<path class="st4" d="M230.4,255.5l0.9-3.5c0.9-3.7,2.1-6.1,3.6-8.6c0.4-0.9,1.5-2.5,3.2-4.1c1.2-4.5,7.3-12.1,15.6-12.1
			c0.1,0,0.2,0,0.3,0l1.7,0l-1.1,1.3c-0.6,0.7-1.2,1.4-1.8,2.2c0.9-0.5,1.8-0.9,2.7-1.4c2.4-1.1,5.2-1.1,7.6-0.1
			c3,1.2,6.4,3.3,9.6,5.3l2.2,1.3l-0.7,0.7c-1,1-1.9,1.9-2.8,2.8c1.8-0.5,3.8-1.2,5.7-1.9l0.4-0.1l0.3,0.2c2.5,1.4,4.8,2.5,6.9,3.2
			l1.1,0.4l-0.6,0.9c0.2-0.2,0.5-0.3,0.7-0.5l0.3-0.3l0.4,0.1c2.7,0.8,5.1,0.8,6.6,0.9c1.4,0,2.2,0.1,2.7,0.6
			c0.2,0.2,0.3,0.5,0.3,0.8c-0.1,1.4-2.4,3.9-4.5,5.7c-2.3,1.9-8.3,6.4-15.1,5.6l-0.3,0l-0.2-0.2c-0.1-0.1-0.2-0.2-0.2-0.3l0.3,0.5
			l-1.5-0.2c-3.8-0.4-7.9-1.5-13-3.6c-2.3-1-4.5-2.4-6.3-4.2c-1-1-2-1.9-2.9-2.7c0.4,0.7,0.9,1.5,1.3,2.3l1.2,2l-2.2-0.8
			c-3.1-1.2-6-1.7-8.3-2.2c-1.8-0.4-3.3-0.6-4.5-1.2c-0.7,0.7-1.3,1.2-1.6,1.7c0,0-5.6,6.6-5.7,6.7L230.4,255.5z M276.9,253.2
			c8.5,0.8,16.1-7.3,17.3-9.4c-0.3,0-0.8,0-1.3-0.1c-1.6,0-3.9-0.1-6.6-0.8c-1.5,1.1-3,2.1-4.6,3l-3.7,2.1l2.7-3.3
			c0.8-0.9,1.5-1.9,2.2-2.8c-1.8-0.7-3.7-1.6-5.7-2.7c-3,1.2-6,2-8.6,2.7l-3.1,0.8l2.3-2.2c1.3-1.3,2.8-2.7,4.4-4.3l-0.4-0.2
			c-3.4-2-6.5-4-9.4-5.2c-2-0.8-4.3-0.8-6.3,0.1c-2.3,1-4.3,2.2-6.3,3.6l-4.1,2.9l2.9-4c1.1-1.5,2.2-2.9,3.3-4.3
			c-6.7,0.9-11.6,7.4-12.4,11l-0.1,0.2l-0.2,0.2c-1.7,1.7-2.7,3.3-3.1,3.9c-0.8,1.4-1.5,2.7-2.2,4.2c0.8-0.9,1.7-2,3-3.5
			c0.4-0.6,1.2-1.4,2.2-2.3l0.5-0.4l0.5,0.3c0.9,0.6,2.5,0.9,4.5,1.2c1.8,0.3,4,0.8,6.4,1.5c-0.9-1.6-1.9-3-2.8-4.3l-2.4-3.6
			l3.5,2.4c2.1,1.5,4.4,3.4,6.9,5.9c1.6,1.6,3.6,3,5.8,3.9c4.2,1.7,7.8,2.8,11,3.3c-0.6-1.1-1.1-2.1-1.6-3.2l-2.9-5.8l4.3,4.9
			C274.3,250.4,275.6,251.9,276.9,253.2z"/>
	</g>
</g>
<g>
	<g>
		<g>
			<path class="st1" d="M60,208.6c-1,0-1.8-0.8-1.8-1.8V93.7H20.5c-1,0-1.8-0.8-1.8-1.8V63.4c0-1,0.8-1.7,1.7-1.8l5.5-0.1
				c18.3-0.4,31.7-9.9,34.9-24.8l1-4.5c0.2-0.8,0.9-1.4,1.7-1.4h31.8c1,0,1.8,0.8,1.8,1.8v174.2c0,1-0.8,1.8-1.8,1.8H60z"/>
		</g>
	</g>
	<g>
		<g>
			<path class="st4" d="M95.4,32.6v174.2H60V91.9H20.5V63.4l5.5-0.1c19.2-0.4,33.2-10.5,36.6-26.2l1-4.5H95.4 M95.4,29.1H63.6
				c-1.7,0-3.1,1.2-3.5,2.8l-1,4.5c-3,14.1-15.7,23-33.2,23.4l-5.5,0.1c-1.9,0-3.5,1.6-3.5,3.5v28.5c0,2,1.6,3.5,3.5,3.5h35.9v111.4
				c0,2,1.6,3.5,3.5,3.5h35.4c2,0,3.5-1.6,3.5-3.5V32.6C99,30.7,97.4,29.1,95.4,29.1L95.4,29.1z"/>
		</g>
	</g>
</g>
<g>
	<g>
		<g>
			<path class="st1" d="M122.6,208.6c-0.5,0-0.9-0.2-1.3-0.5c-0.3-0.3-0.5-0.8-0.5-1.3l0.1-5.8c0.6-30.6,13.6-52.5,42.1-71
				l27.1-17.6c12.6-8.1,19-17.4,19-27.7c0-9.8-6.1-21.2-23.3-21.2c-20.9,0-24,16.3-24,26c0,1.9,0.2,4.1,0.5,6.5l0.7,7
				c0.1,0.5-0.1,1.1-0.5,1.4c-0.3,0.3-0.8,0.5-1.2,0.5c-0.1,0-0.1,0-0.2,0l-7-0.8l-29.1-3.6c-0.8-0.1-1.5-0.7-1.5-1.6l-0.5-4.4
				c-0.3-2.7-0.3-5.2-0.3-7.4c0-29.9,21.9-60.2,63.7-60.2c36.8,0,62.5,23.6,62.5,57.4c0,22.5-12.1,42.6-34.1,56.5l-32.2,20.6
				c-4,2.6-8.3,5.6-11.6,9.2h77.1c1,0,1.8,0.8,1.8,1.8v34.2c0,1-0.8,1.8-1.8,1.8H122.6z"/>
		</g>
	</g>
	<g>
		<g>
			<path class="st4" d="M186.4,28.8c35.7,0,60.7,22.9,60.7,55.7c0,21.9-11.8,41.4-33.3,55.1l-32.2,20.6c-5.5,3.6-10.9,7.6-14.3,12.5
				h80.8v34.2H122.6l0.1-5.8c0.6-30,13.3-51.4,41.3-69.5l27.1-17.6c13.1-8.4,19.8-18.2,19.8-29.2c0-10.6-6.6-23-25-23
				c-23.3,0-25.8,19.4-25.8,27.8c0,2,0.2,4.3,0.5,6.7l0.7,7l-7-0.8l-29.1-3.6l-0.5-4.4c-0.3-2.6-0.3-5-0.3-7.2
				C124.4,58.2,145.7,28.8,186.4,28.8 M186.4,25.3c-43,0-65.5,31.2-65.5,62c0,2.2,0,4.8,0.3,7.5l0.5,4.4c0.2,1.6,1.5,2.9,3.1,3.1
				l29.1,3.6l7,0.8c0.1,0,0.3,0,0.4,0c0.9,0,1.8-0.4,2.5-1c0.8-0.8,1.1-1.8,1-2.9l-0.7-7c-0.2-2.3-0.5-4.5-0.5-6.3
				c0-9.1,2.9-24.2,22.2-24.2c15.8,0,21.5,10.1,21.5,19.5c0,9.7-6.1,18.5-18.2,26.2l-27.2,17.6c-29.1,18.8-42.3,41.1-42.9,72.4
				l-0.1,5.8c0,0.9,0.3,1.9,1,2.5c0.7,0.7,1.6,1.1,2.5,1.1h125.5c2,0,3.5-1.6,3.5-3.5v-34.2c0-2-1.6-3.5-3.5-3.5h-72.7
				c2.6-2.2,5.5-4.2,8.2-6l32.1-20.6c22.5-14.3,34.9-34.9,34.9-58C250.6,49.6,224.2,25.3,186.4,25.3L186.4,25.3z"/>
		</g>
	</g>
</g>
<g>
	<g>
		<path class="st4" d="M226.4,225.4c0.9-1.1,0.1-2.6-1.2-2.6h-51.5h-14.9H82.2c-1.4,0-2.1,1.6-1.2,2.6l10.7,13.1
			c0.5,0.6,0.5,1.4,0,2L80.9,254c-0.8,1.1-0.1,2.6,1.3,2.6h76.5h14.9h51.6c1.3,0,2.1-1.6,1.3-2.6l-10.7-13.5c-0.5-0.6-0.5-1.4,0-2
			L226.4,225.4z"/>
	</g>
</g>
<g>
	<path class="st7" d="M102.5,238c0-5.6,4.2-9.2,9-9.2c4.9,0,7.4,3,8.1,5.8l-3.2,1c-0.4-1.7-1.8-3.5-4.8-3.5c-2.6,0-5.4,1.9-5.4,5.9
		c0,3.7,2.6,5.8,5.5,5.8c3,0,4.5-2,4.9-3.6l3.2,1c-0.7,2.7-3.2,6-8.1,6C106.6,247.2,102.5,243.6,102.5,238z"/>
	<path class="st7" d="M122.5,246.8v-17.6h3.5v17.6H122.5z"/>
	<path class="st7" d="M128.9,238c0-5.6,4.2-9.2,9-9.2c4.9,0,7.4,3,8.1,5.8l-3.2,1c-0.4-1.7-1.8-3.5-4.8-3.5c-2.6,0-5.4,1.9-5.4,5.9
		c0,3.7,2.6,5.8,5.5,5.8c3,0,4.5-2,4.9-3.6l3.2,1c-0.7,2.7-3.2,6-8.1,6C133,247.2,128.9,243.6,128.9,238z"/>
	<path class="st7" d="M148.9,246.8v-17.6h3.5v17.6H148.9z"/>
	<path class="st7" d="M156.4,246.8v-17.6h3.4v14.3h7.8v3.3H156.4z"/>
	<path class="st7" d="M181,242.8h-7.1l-1.5,4h-3.6l6.8-17.6h4l6.7,17.6h-3.7L181,242.8z M175,239.6h4.9l-2.4-6.7L175,239.6z"/>
	<path class="st7" d="M199.8,246.8l-8-12.5v12.5h-3.4v-17.6h4.3l7.3,11.6v-11.6h3.4v17.6H199.8z"/>
</g>
<g>
	<g>
		<g>
			<path class="st1" d="M271.1,76.4c-0.5,0-0.9-0.2-1.2-0.6l-7.1-10.2l-7,10.2c-0.3,0.4-0.7,0.6-1.2,0.6h-15.9c-0.5,0-1-0.3-1.3-0.8
				c-0.2-0.5-0.2-1,0.1-1.5l15.6-21.3l-15.1-20.6c-0.3-0.4-0.4-1-0.1-1.5c0.2-0.5,0.7-0.8,1.3-0.8h16c0.5,0,0.9,0.2,1.2,0.6l6.6,9.5
				l6.5-9.5c0.3-0.4,0.7-0.6,1.2-0.6h15.8c0.5,0,1,0.3,1.3,0.8c0.2,0.5,0.2,1-0.1,1.5l-14.9,20.6c1.4,2,3.3,4.6,5.2,7.2
				c2.7,3.8,5.8,8,6.9,9.5l3.4,4.5c0.3,0.4,0.4,1,0.1,1.5c-0.2,0.5-0.7,0.8-1.3,0.8H271.1z"/>
		</g>
	</g>
	<g>
		<g>
			<path class="st4" d="M286.6,31.4L271,52.8c1.5,2,3.7,5.1,5.8,8.1c2.8,4,5.8,8.1,6.9,9.6l3.4,4.5h-16l-8.3-11.8L254.7,75h-15.9
				L255,52.8l-15.7-21.4h16l7.8,11.2l7.7-11.2H286.6 M286.6,28.6h-15.8c-0.9,0-1.8,0.5-2.3,1.2l-5.4,7.8l-5.5-7.8
				c-0.5-0.8-1.4-1.2-2.3-1.2h-16c-1.1,0-2,0.6-2.5,1.5c-0.5,0.9-0.4,2.1,0.2,2.9l14.5,19.8l-15,20.5c-0.6,0.9-0.7,2-0.2,2.9
				c0.5,0.9,1.5,1.5,2.5,1.5h15.9c0.9,0,1.8-0.5,2.3-1.2l5.8-8.5l6,8.5c0.5,0.8,1.4,1.2,2.3,1.2h16c1.1,0,2-0.6,2.5-1.6
				c0.5-1,0.4-2.1-0.3-3l-3.4-4.5c-1.1-1.5-4.2-5.8-6.9-9.5c-1.6-2.3-3.3-4.6-4.6-6.4l14.3-19.8c0.6-0.9,0.7-2,0.2-2.9
				C288.6,29.2,287.6,28.6,286.6,28.6L286.6,28.6z"/>
		</g>
	</g>
</g>
</svg>
