<?xml version="1.0" encoding="utf-8"?>
<!-- Generator: Adobe Illustrator 21.0.0, SVG Export Plug-In . SVG Version: 6.00 Build 0)  -->
<svg version="1.1" id="Layer_1" xmlns="http://www.w3.org/2000/svg" xmlns:xlink="http://www.w3.org/1999/xlink" x="0px" y="0px"
	 viewBox="0 0 157.1 83.3" style="enable-background:new 0 0 157.1 83.3;" xml:space="preserve">
<style type="text/css">
	.st0{fill:#FFFFFF;}
</style>
<path class="st0" d="M115,64h-4.5c0.3-3.9,3.7-6.8,7.6-6.7c1.9-0.1,3.7,0.6,5.1,1.9c1.3,1.2,2.1,2.8,2.1,4.6c0,1.1-0.3,2.1-0.9,3
	c-0.7,1-1.6,1.7-2.6,2.2c1.4,0.4,2.6,1.2,3.5,2.3c0.3,0.4,0.6,0.8,0.8,1.3c0.4-1,0.9-2,1.4-2.9l6.3-12.4l4,2l-4.3,8.3
	c2,0,3.9,0.8,5.3,2.2c0.4,0.4,0.8,0.9,1.1,1.4v-0.8c0-4.5,0.7-7.8,2.1-9.8c1.4-2.2,3.9-3.4,6.5-3.3c1.6,0,3.3,0.4,4.6,1.3
	c1.4,1,2.4,2.4,3,4c1.4,5,1.4,10.2,0,15.2c-0.6,1.6-1.6,3-2.9,4c-1.4,0.9-3,1.3-4.6,1.3c-1.6,0.1-3.3-0.4-4.7-1.3
	c-1.4-1-2.4-2.3-3-3.9c-0.1-0.2-0.1-0.3-0.2-0.5c-0.3,1.3-1,2.5-2,3.5c-3.1,3-8,3-11-0.1c-0.7-0.8-1.3-1.7-1.7-2.6
	c-0.4,1-1.1,1.9-1.9,2.7c-1.7,1.6-3.9,2.4-6.2,2.3c-2.2,0.1-4.3-0.7-5.8-2.2c-1.6-1.6-2.4-3.7-2.5-5.9h4.6c0.1,1.1,0.6,2.1,1.3,2.8
	c1.6,1.3,3.8,1.2,5.3-0.1c1.4-1.4,1.4-3.6,0.1-5c-0.1-0.1-0.3-0.3-0.5-0.4c-1.2-0.9-2.7-1.3-4.2-1.2v-4c0.9,0,1.7-0.2,2.5-0.5
	c0.5-0.2,1-0.6,1.3-1.1c0.3-0.4,0.5-0.9,0.5-1.5c0-0.6-0.2-1.2-0.7-1.7c-0.5-0.5-1.2-0.7-1.8-0.7c-0.7,0-1.3,0.2-1.8,0.6
	C115.6,62.8,115.2,63.4,115,64L115,64z M148.5,61.8c-0.8,0-1.5,0.3-2.1,0.8c-0.7,0.7-1.2,1.6-1.4,2.6c-0.4,1.8-0.5,3.6-0.5,5.4
	c0,3.1,0.4,5.3,1.1,6.4c0.6,1.1,1.7,1.8,2.9,1.8c1.1,0,2.2-0.7,2.7-1.7c0.8-1.4,1.2-3.7,1.2-6.8c0-3.2-0.4-5.5-1.1-6.7
	C150.8,62.5,149.7,61.8,148.5,61.8L148.5,61.8z M133.1,72.1c-0.8,0-1.6,0.3-2.2,0.9c-1.2,1.4-1.2,3.4,0,4.8c0.6,0.6,1.3,1,2.2,1
	c0.8,0,1.7-0.3,2.2-1c1.2-1.3,1.3-3.4,0-4.8C134.8,72.4,134,72,133.1,72.1L133.1,72.1z"/>
<path class="st0" d="M12.3,73.4c0,1,0,2-0.1,3c-0.1,0.8-0.2,1.5-0.4,2.2c-0.3,1.2-1,2.2-1.8,3c-0.4,0.4-0.8,0.7-1.3,0.9
	c-0.9,0.4-1.8,0.6-2.8,0.7c-0.4,0-0.7,0-1,0c-0.5,0-1.1,0-1.6-0.1C2.8,83.1,2.4,83,2,82.9c-0.4-0.1-0.7-0.3-1-0.5L0,78.8
	c0.1,0.1,0.2,0.2,0.4,0.2c0.3,0.2,0.6,0.3,0.9,0.4c0.4,0.2,0.8,0.3,1.3,0.4c0.5,0.1,1,0.2,1.5,0.2c1.3,0.1,2.6-0.5,3.3-1.6
	C7.7,77.6,8,76.8,8,76c0.1-0.9,0.1-1.8,0.1-2.6V57.5h4.1L12.3,73.4z M31.7,74.2H20.3v0.4c0,0.4,0.1,0.8,0.2,1.2
	c0.1,0.6,0.4,1.2,0.7,1.7c0.4,0.6,1,1.1,1.7,1.5c1,0.5,2,0.7,3.1,0.7c1.3,0.1,2.7-0.2,3.9-0.7c0.4-0.1,0.7-0.3,1-0.5
	c0.1-0.1,0.3-0.2,0.4-0.3l-0.5,3.2c-0.1,0.1-0.3,0.2-0.4,0.3c-0.3,0.2-0.7,0.3-1,0.4c-0.5,0.2-1.1,0.3-1.7,0.4
	c-0.7,0.1-1.5,0.2-2.3,0.2c-1.2,0-2.3-0.1-3.4-0.5c-0.9-0.3-1.7-0.7-2.4-1.3c-0.6-0.5-1.2-1.1-1.6-1.8c-0.4-0.6-0.7-1.3-0.9-2.1
	c-0.2-0.7-0.3-1.4-0.4-2.1c-0.1-0.7-0.1-1.2-0.1-1.7c0-0.6,0-1.2,0.1-1.8c0.1-0.7,0.2-1.4,0.4-2.1c0.2-0.7,0.5-1.5,0.9-2.1
	c0.4-0.7,0.9-1.3,1.4-1.9c0.6-0.6,1.3-1,2.1-1.3c0.9-0.4,2-0.5,3-0.5c1,0,2,0.1,2.9,0.5c0.8,0.3,1.4,0.8,2,1.3
	c0.5,0.5,1,1.2,1.3,1.9c0.3,0.7,0.6,1.4,0.7,2.1c0.2,0.7,0.3,1.4,0.3,2.1c0,0.7,0.1,1.2,0.1,1.7L31.7,74.2z M28.1,71.7v-0.4
	c0-0.3,0-0.7-0.1-1c-0.1-0.4-0.2-0.9-0.3-1.3c-0.1-0.4-0.4-0.9-0.6-1.3c-0.3-0.4-0.6-0.8-1.1-1c-0.5-0.3-1-0.4-1.6-0.4
	c-0.6,0-1.2,0.1-1.8,0.3c-0.5,0.2-0.8,0.6-1.2,1c-0.3,0.4-0.5,0.8-0.7,1.3c-0.1,0.4-0.3,0.9-0.3,1.3c-0.1,0.3-0.1,0.7-0.1,1v0.5
	L28.1,71.7z M48.3,82.5h-3.5V70.8c0-0.6,0-1.1-0.1-1.6c0-0.5-0.2-1-0.4-1.4c-0.2-0.4-0.6-0.8-1-1c-0.6-0.3-1.2-0.4-1.9-0.4
	c-0.5,0-1,0.1-1.4,0.2c-0.4,0.2-0.7,0.4-1,0.7c-0.3,0.3-0.5,0.6-0.7,0.9c-0.2,0.3-0.3,0.6-0.4,1c-0.1,0.3-0.1,0.7-0.2,1
	c0,0.3,0,0.7,0,0.9v11.4H34V64h3.6v2.4c0.1-0.3,0.3-0.5,0.4-0.7c0.3-0.4,0.6-0.7,0.9-0.9c0.5-0.3,1-0.6,1.5-0.8
	c0.7-0.2,1.4-0.4,2.1-0.3c1.7-0.1,3.4,0.5,4.5,1.9c0.5,0.6,0.8,1.4,1,2.2c0.1,0.8,0.2,1.6,0.2,2.5L48.3,82.5z M65.9,82.4h-3.4v-1.8
	c-0.6,0.6-1.3,1.1-2.1,1.5c-0.8,0.4-1.7,0.6-2.6,0.6c-2.2,0.1-4.3-0.9-5.4-2.8c-0.6-0.9-1-1.9-1.2-3c-0.3-1.2-0.4-2.4-0.4-3.6
	c0-1,0.1-2.1,0.3-3.1c0.2-1.1,0.6-2.2,1.1-3.2c0.5-1,1.3-1.8,2.2-2.5c1-0.7,2.3-1.1,3.5-1c0.7,0,1.4,0.1,2.1,0.3
	c0.5,0.2,0.9,0.4,1.3,0.8c0.4,0.3,0.7,0.6,0.9,1.1v-8.3h3.6L65.9,82.4z M62.3,78.1v-7.5c0-0.6-0.1-1.1-0.2-1.7
	c-0.1-0.6-0.4-1.1-0.8-1.5c-0.3-0.3-0.7-0.6-1.1-0.8c-0.5-0.2-1.1-0.3-1.7-0.3c-0.8,0-1.6,0.2-2.2,0.7c-0.5,0.5-0.9,1.1-1.2,1.8
	c-0.3,0.7-0.4,1.5-0.5,2.3c-0.1,0.8-0.1,1.5-0.1,2.2c0,0.9,0.1,1.7,0.2,2.6c0.1,0.7,0.4,1.4,0.7,2c0.3,0.5,0.7,1,1.2,1.4
	c0.6,0.4,1.2,0.5,1.9,0.5c0.4,0,0.7,0,1.1-0.1c0.4-0.1,0.7-0.2,1.1-0.4c0.3-0.1,0.6-0.3,0.8-0.5C61.9,78.6,62.1,78.3,62.3,78.1
	L62.3,78.1z M83.6,74.2H72.3v0.4c0,0.4,0.1,0.8,0.2,1.2c0.1,0.6,0.4,1.2,0.7,1.7c0.4,0.6,1,1.1,1.7,1.5c1,0.5,2,0.7,3.1,0.7
	c1.3,0.1,2.7-0.2,3.9-0.7c0.4-0.1,0.7-0.3,1-0.5c0.1-0.1,0.3-0.2,0.4-0.3l-0.5,3.2c-0.1,0.1-0.3,0.2-0.4,0.3c-0.3,0.2-0.7,0.3-1,0.5
	c-0.5,0.2-1.1,0.3-1.7,0.4c-0.7,0.1-1.5,0.2-2.3,0.2c-1.2,0-2.3-0.1-3.4-0.5C73,82,72.2,81.5,71.5,81c-0.6-0.5-1.2-1.1-1.6-1.8
	c-0.4-0.6-0.7-1.3-0.9-2.1c-0.2-0.7-0.3-1.4-0.4-2.1c-0.1-0.7-0.1-1.2-0.1-1.7c0-0.6,0-1.2,0.1-1.8c0.1-0.7,0.2-1.4,0.4-2.1
	c0.2-0.7,0.5-1.5,0.9-2.1c0.4-0.7,0.9-1.3,1.4-1.9c0.6-0.6,1.3-1,2.1-1.3c0.9-0.4,2-0.5,3-0.5c1,0,2,0.1,2.9,0.5
	c0.8,0.3,1.4,0.8,2,1.3c0.5,0.5,1,1.2,1.3,1.9c0.3,0.7,0.6,1.4,0.7,2.1c0.2,0.7,0.3,1.4,0.3,2.1c0,0.7,0.1,1.2,0.1,1.7L83.6,74.2z
	 M80,71.8v-0.4c0-0.3,0-0.7-0.1-1c-0.1-0.4-0.2-0.9-0.3-1.3c-0.1-0.4-0.4-0.9-0.6-1.3c-0.3-0.4-0.6-0.8-1.1-1
	c-0.5-0.3-1-0.4-1.6-0.4c-0.6,0-1.2,0.1-1.8,0.3c-0.5,0.2-0.8,0.6-1.2,1c-0.3,0.4-0.5,0.8-0.7,1.3c-0.1,0.4-0.3,0.9-0.3,1.3
	c-0.1,0.3-0.1,0.7-0.1,1v0.5L80,71.8z M86.3,82.4v-25h3.5v25L86.3,82.4z M106.9,82.4h-2.5c-0.2,0-0.5-0.1-0.6-0.3
	c-0.1-0.1-0.2-0.3-0.2-0.5c0-0.2,0-0.4,0-0.5v-1.1c-0.6,0.8-1.3,1.5-2.2,2c-1.1,0.5-2.3,0.8-3.4,0.7c-0.9,0-1.8-0.2-2.6-0.6
	c-1.2-0.7-2.1-1.8-2.4-3.2c-0.1-0.5-0.2-1.1-0.2-1.7c0-0.5,0.1-1,0.2-1.5c0.2-0.7,0.5-1.4,0.9-2c0.4-0.5,0.9-1,1.4-1.4
	c0.6-0.4,1.2-0.7,1.8-0.9c0.7-0.2,1.4-0.4,2.1-0.5c0.7-0.1,1.4-0.2,2.1-0.2c0.3,0,0.6,0,0.9,0l0.7,0.1l0.6,0.1v-0.9
	c0-0.3,0-0.7-0.1-1.2c0-0.5-0.3-1-0.6-1.4c-0.3-0.4-0.8-0.7-1.3-0.9c-0.8-0.2-1.6-0.4-2.4-0.3c-0.7,0-1.4,0.1-2.1,0.3
	c-0.5,0.1-1,0.3-1.5,0.6c-0.4,0.2-0.8,0.5-1.2,0.8l0.6-3.2c0.4-0.2,0.8-0.5,1.2-0.6c0.5-0.2,1-0.3,1.5-0.4c0.7-0.1,1.4-0.2,2.1-0.2
	c1.2,0,2.3,0.1,3.4,0.5c0.8,0.3,1.6,0.7,2.2,1.4c0.6,0.6,1,1.3,1.2,2.1c0.2,0.9,0.3,1.9,0.3,2.9L106.9,82.4z M103.3,76.9v-3.4
	c-0.2,0-0.4-0.1-0.6-0.1l-0.6-0.1c-0.2,0-0.5,0-0.8,0c-1.1,0-2.1,0.2-3.1,0.6c-0.8,0.3-1.4,1-1.7,1.8c0,0.2-0.1,0.4-0.1,0.5
	c0,0.2,0,0.4,0,0.6c-0.1,0.9,0.3,1.8,0.9,2.3c0.7,0.5,1.5,0.7,2.3,0.7c0.2,0,0.4,0,0.6-0.1c0.3,0,0.5-0.1,0.7-0.2
	c0.6-0.2,1.2-0.6,1.7-1C103.1,78.2,103.3,77.6,103.3,76.9L103.3,76.9z"/>
<path class="st0" d="M77.2,51.2C87.9,51,97.4,44.1,101,34h4.7l-3.9-6.7L98,20.5l-3.9,6.7L90.2,34h4.5c-1.7,3.8-4.6,6.9-8.2,8.9v-12
	L81,27.7v-8.9l-4.7-2.7v13l3.6-2.1v18.1c-0.9,0.1-1.8,0.2-2.8,0.2c-1.3,0-2.6-0.1-3.9-0.4V30.9l1.2-0.7V15l-6.6,3.9V43
	c1,0.5,2,1,3.1,1.3V23.8l-3.1,1.7l-4.1,2.3V40c-8-7.5-8.3-20-0.8-28c3.7-4,8.9-6.2,14.3-6.2c6.2,0.1,12,3.1,15.6,8.2
	c2.5,3.5,7.4,0.5,5.2-2.7C93.2,4.3,85.5,0.1,77.2,0C63,0,51.5,11.4,51.5,25.6S63,51.2,77.2,51.2C77.1,51.2,77.1,51.2,77.2,51.2
	L77.2,51.2z"/>
</svg>
