<?xml version="1.0" encoding="utf-8"?>
<!-- Generator: Adobe Illustrator 21.0.0, SVG Export Plug-In . SVG Version: 6.00 Build 0)  -->
<svg version="1.1" id="Layer_1" xmlns="http://www.w3.org/2000/svg" xmlns:xlink="http://www.w3.org/1999/xlink" x="0px" y="0px"
	 viewBox="0 0 300 260" style="enable-background:new 0 0 300 260;" xml:space="preserve">
<style type="text/css">
	.st0{opacity:0.3;}
	.st1{fill:#FFFFFF;}
	.st2{fill:#EAEAEA;}
	.st3{fill:#999999;}
	.st4{opacity:0.2;}
	.st5{fill:#9AC7DA;}
	.st6{opacity:0.18;}
	.st7{fill:#4BA5B5;}
	.st8{fill:#8CCEEF;}
	.st9{fill:#3D7C95;}
	.st10{fill:#EEA050;}
	.st11{fill:#A87E32;}
	.st12{fill:#D2EEF9;}
	.st13{fill:#F6F7F9;}
	.st14{opacity:0.5;}
	.st15{opacity:0.7;}
	.st16{fill:#A5E19C;}
	.st17{clip-path:url(#SVGID_2_);}
	.st18{fill:#D0FAFC;}
	.st19{fill:none;}
	.st20{fill:#14B14B;}
</style>
<g class="st0">
	<g>
		<rect x="204" y="46.8" class="st1" width="53.4" height="210.2"/>
	</g>
	<g>
		<rect x="204" y="92.5" class="st2" width="53.4" height="69"/>
	</g>
	<g>
		<rect x="208" y="60.2" class="st3" width="45.4" height="7.4"/>
	</g>
	<g>
		<rect x="208" y="73.3" class="st3" width="45.4" height="7.4"/>
	</g>
	<g>
		<rect x="208" y="86.5" class="st3" width="45.4" height="7.4"/>
	</g>
	<g>
		<rect x="208" y="99.7" class="st3" width="45.4" height="7.4"/>
	</g>
	<g>
		<rect x="208" y="112.9" class="st3" width="45.4" height="7.4"/>
	</g>
	<g>
		<rect x="208" y="126.1" class="st3" width="45.4" height="7.4"/>
	</g>
	<g>
		<rect x="208" y="139.2" class="st3" width="45.4" height="7.4"/>
	</g>
	<g>
		<rect x="208" y="152.4" class="st3" width="45.4" height="7.4"/>
	</g>
	<g>
		<rect x="208" y="165.6" class="st3" width="45.4" height="7.4"/>
	</g>
	<g>
		<rect x="208" y="178.8" class="st3" width="45.4" height="7.4"/>
	</g>
	<g>
		<rect x="208" y="192" class="st3" width="45.4" height="7.4"/>
	</g>
	<g>
		<rect x="208" y="205.1" class="st3" width="45.4" height="7.4"/>
	</g>
	<g>
		<rect x="208" y="218.3" class="st3" width="45.4" height="7.4"/>
	</g>
	<g>
		<rect x="217.7" y="230" class="st3" width="25.9" height="26.7"/>
	</g>
	<g>
		<rect x="230.2" y="230" class="st3" width="1" height="26.7"/>
	</g>
</g>
<g class="st4">
	<g>
		<polygon class="st5" points="112.6,258.5 26.8,258.5 26.8,35.9 112.6,35.2 		"/>
	</g>
	<g class="st6">
		<rect x="26.8" y="184.9" class="st5" width="85.8" height="73.6"/>
	</g>
	<g>
		<rect x="33.2" y="46.6" class="st7" width="72.9" height="7.9"/>
	</g>
	<g>
		<rect x="33.2" y="60.8" class="st7" width="72.9" height="7.9"/>
	</g>
	<g>
		<rect x="33.2" y="75" class="st7" width="72.9" height="7.9"/>
	</g>
	<g>
		<rect x="33.2" y="89.2" class="st7" width="72.9" height="7.9"/>
	</g>
	<g>
		<rect x="33.2" y="103.4" class="st7" width="72.9" height="7.9"/>
	</g>
	<g>
		<rect x="33.2" y="117.6" class="st7" width="72.9" height="7.9"/>
	</g>
	<g>
		<rect x="33.2" y="131.8" class="st7" width="72.9" height="7.9"/>
	</g>
	<g>
		<rect x="33.2" y="146" class="st7" width="72.9" height="7.9"/>
	</g>
	<g>
		<rect x="33.2" y="160.1" class="st7" width="72.9" height="7.9"/>
	</g>
	<g>
		<rect x="33.2" y="174.3" class="st7" width="72.9" height="7.9"/>
	</g>
	<g>
		<rect x="33.2" y="188.5" class="st7" width="72.9" height="7.9"/>
	</g>
	<g>
		<rect x="33.2" y="202.7" class="st7" width="72.9" height="7.9"/>
	</g>
	<g>
		<rect x="33.2" y="216.9" class="st7" width="72.9" height="7.9"/>
	</g>
	<g>
		<rect x="48.9" y="229.5" class="st7" width="41.6" height="28.7"/>
	</g>
	<g>
		<rect x="68.7" y="44.4" class="st5" width="1.9" height="214.3"/>
	</g>
</g>
<g>
	<g>
		<rect x="85.6" y="14.2" class="st8" width="127.9" height="243.5"/>
	</g>
	<g>
		<path class="st9" d="M212,15.7v240.5H87.2V15.7H212 M215.1,12.7H212H87.2h-3.1v3.1v240.5v3.1h3.1H212h3.1v-3.1V15.7V12.7
			L215.1,12.7z"/>
	</g>
</g>
<g>
	<g>
		<g>
			<g>
				<rect x="189" y="168.7" class="st1" width="15.8" height="29.2"/>
			</g>
		</g>
		<g>
			<g>
				<rect x="158.3" y="168.7" class="st1" width="15.8" height="29.2"/>
			</g>
		</g>
		<g>
			<g>
				<rect x="127.6" y="168.7" class="st1" width="15.8" height="29.2"/>
			</g>
		</g>
		<g>
			<g>
				<rect x="96.9" y="168.7" class="st1" width="15.8" height="29.2"/>
			</g>
		</g>
	</g>
	<g>
		<g>
			<g>
				<rect x="189" y="122.6" class="st1" width="15.8" height="29.2"/>
			</g>
		</g>
		<g>
			<g>
				<rect x="158.3" y="122.6" class="st1" width="15.8" height="29.2"/>
			</g>
		</g>
		<g>
			<g>
				<rect x="127.6" y="122.6" class="st1" width="15.8" height="29.2"/>
			</g>
		</g>
		<g>
			<g>
				<rect x="96.9" y="122.6" class="st1" width="15.8" height="29.2"/>
			</g>
		</g>
	</g>
	<g>
		<g>
			<g>
				<rect x="189" y="76.6" class="st1" width="15.8" height="29.2"/>
			</g>
		</g>
		<g>
			<g>
				<rect x="158.3" y="76.6" class="st1" width="15.8" height="29.2"/>
			</g>
		</g>
		<g>
			<g>
				<rect x="127.6" y="76.6" class="st1" width="15.8" height="29.2"/>
			</g>
		</g>
		<g>
			<g>
				<rect x="96.9" y="76.6" class="st1" width="15.8" height="29.2"/>
			</g>
		</g>
	</g>
	<g>
		<g>
			<g>
				<rect x="189" y="30.5" class="st1" width="15.8" height="29.2"/>
			</g>
		</g>
		<g>
			<g>
				<rect x="158.3" y="30.5" class="st1" width="15.8" height="29.2"/>
			</g>
		</g>
		<g>
			<g>
				<rect x="127.6" y="30.5" class="st1" width="15.8" height="29.2"/>
			</g>
		</g>
		<g>
			<g>
				<rect x="96.9" y="30.5" class="st1" width="15.8" height="29.2"/>
			</g>
		</g>
	</g>
</g>
<g>
	<rect x="117.9" y="224.5" class="st10" width="62.2" height="27.1"/>
</g>
<g>
	<path class="st11" d="M179.1,225.5v25h-60.2v-25H179.1 M180.1,224.5h-62.2v27.1h62.2V224.5L180.1,224.5z"/>
</g>
<g>
	<rect x="114.3" y="251.4" class="st9" width="69.1" height="2.3"/>
</g>
<g>
	<rect x="111.2" y="253" class="st9" width="75.4" height="4.1"/>
</g>
<g>
	<g>
		<g>
			<g>
				<polygon class="st12" points="204.9,194.6 191.5,194.6 191.5,168.7 189,168.7 189,197.9 204.9,197.9 				"/>
			</g>
		</g>
		<g>
			<g>
				<polygon class="st12" points="174.2,194.6 160.8,194.6 160.8,168.7 158.3,168.7 158.3,197.9 174.2,197.9 				"/>
			</g>
		</g>
		<g>
			<g>
				<polygon class="st12" points="143.5,194.6 130.1,194.6 130.1,168.7 127.6,168.7 127.6,197.9 143.5,197.9 				"/>
			</g>
		</g>
		<g>
			<g>
				<polygon class="st12" points="112.8,194.6 99.4,194.6 99.4,168.7 96.9,168.7 96.9,197.9 112.8,197.9 				"/>
			</g>
		</g>
	</g>
	<g>
		<g>
			<g>
				<polygon class="st12" points="204.9,148.6 191.5,148.6 191.5,122.6 189,122.6 189,151.9 204.9,151.9 				"/>
			</g>
		</g>
		<g>
			<g>
				<polygon class="st12" points="174.2,148.6 160.8,148.6 160.8,122.6 158.3,122.6 158.3,151.9 174.2,151.9 				"/>
			</g>
		</g>
		<g>
			<g>
				<polygon class="st12" points="143.5,148.6 130.1,148.6 130.1,122.6 127.6,122.6 127.6,151.9 143.5,151.9 				"/>
			</g>
		</g>
		<g>
			<g>
				<polygon class="st12" points="112.8,148.6 99.4,148.6 99.4,122.6 96.9,122.6 96.9,151.9 112.8,151.9 				"/>
			</g>
		</g>
	</g>
	<g>
		<g>
			<g>
				<polygon class="st12" points="204.9,102.5 191.5,102.5 191.5,76.6 189,76.6 189,105.8 204.9,105.8 				"/>
			</g>
		</g>
		<g>
			<g>
				<polygon class="st12" points="174.2,102.5 160.8,102.5 160.8,76.6 158.3,76.6 158.3,105.8 174.2,105.8 				"/>
			</g>
		</g>
		<g>
			<g>
				<polygon class="st12" points="143.5,102.5 130.1,102.5 130.1,76.6 127.6,76.6 127.6,105.8 143.5,105.8 				"/>
			</g>
		</g>
		<g>
			<g>
				<polygon class="st12" points="112.8,102.5 99.4,102.5 99.4,76.6 96.9,76.6 96.9,105.8 112.8,105.8 				"/>
			</g>
		</g>
	</g>
	<g>
		<g>
			<g>
				<polygon class="st12" points="204.9,56.5 191.5,56.5 191.5,30.5 189,30.5 189,59.8 204.9,59.8 				"/>
			</g>
		</g>
		<g>
			<g>
				<polygon class="st12" points="174.2,56.5 160.8,56.5 160.8,30.5 158.3,30.5 158.3,59.8 174.2,59.8 				"/>
			</g>
		</g>
		<g>
			<g>
				<polygon class="st12" points="143.5,56.5 130.1,56.5 130.1,30.5 127.6,30.5 127.6,59.8 143.5,59.8 				"/>
			</g>
		</g>
		<g>
			<g>
				<polygon class="st12" points="112.8,56.5 99.4,56.5 99.4,30.5 96.9,30.5 96.9,59.8 112.8,59.8 				"/>
			</g>
		</g>
	</g>
</g>
<g>
	<g>
		<g>
			<g>
				<rect x="189" y="182.3" class="st9" width="16.3" height="1"/>
			</g>
		</g>
		<g>
			<g>
				<rect x="158.3" y="182.3" class="st9" width="16.3" height="1"/>
			</g>
		</g>
		<g>
			<g>
				<rect x="127.6" y="182.3" class="st9" width="16.3" height="1"/>
			</g>
		</g>
		<g>
			<g>
				<rect x="96.9" y="182.3" class="st9" width="16.3" height="1"/>
			</g>
		</g>
	</g>
	<g>
		<g>
			<g>
				<rect x="189" y="136.3" class="st9" width="16.3" height="1"/>
			</g>
		</g>
		<g>
			<g>
				<rect x="158.3" y="136.3" class="st9" width="16.3" height="1"/>
			</g>
		</g>
		<g>
			<g>
				<rect x="127.6" y="136.3" class="st9" width="16.3" height="1"/>
			</g>
		</g>
		<g>
			<g>
				<rect x="96.9" y="136.3" class="st9" width="16.3" height="1"/>
			</g>
		</g>
	</g>
	<g>
		<g>
			<g>
				<rect x="189" y="90.2" class="st9" width="16.3" height="1"/>
			</g>
		</g>
		<g>
			<g>
				<rect x="158.3" y="90.2" class="st9" width="16.3" height="1"/>
			</g>
		</g>
		<g>
			<g>
				<rect x="127.6" y="90.2" class="st9" width="16.3" height="1"/>
			</g>
		</g>
		<g>
			<g>
				<rect x="96.9" y="90.2" class="st9" width="16.3" height="1"/>
			</g>
		</g>
	</g>
	<g>
		<g>
			<g>
				<rect x="189" y="44.2" class="st9" width="16.3" height="1"/>
			</g>
		</g>
		<g>
			<g>
				<rect x="158.3" y="44.2" class="st9" width="16.3" height="1"/>
			</g>
		</g>
		<g>
			<g>
				<rect x="127.6" y="44.2" class="st9" width="16.3" height="1"/>
			</g>
		</g>
		<g>
			<g>
				<rect x="96.9" y="44.2" class="st9" width="16.3" height="1"/>
			</g>
		</g>
	</g>
</g>
<g>
	<g>
		<g>
			<g>
				<path class="st9" d="M204.8,168.7v27.8H189v-27.8H204.8 M205.9,167.7h-1H189h-1v1v27.8v1h1h15.8h1v-1v-27.8V167.7L205.9,167.7z"
					/>
			</g>
		</g>
		<g>
			<g>
				<path class="st9" d="M174.1,168.7v27.8h-15.8v-27.8H174.1 M175.2,167.7h-1h-15.8h-1v1v27.8v1h1h15.8h1v-1v-27.8V167.7
					L175.2,167.7z"/>
			</g>
		</g>
		<g>
			<g>
				<path class="st9" d="M143.4,168.7v27.8h-15.8v-27.8H143.4 M144.5,167.7h-1h-15.8h-1v1v27.8v1h1h15.8h1v-1v-27.8V167.7
					L144.5,167.7z"/>
			</g>
		</g>
		<g>
			<g>
				<path class="st9" d="M112.7,168.7v27.8H96.9v-27.8H112.7 M113.8,167.7h-1H96.9h-1v1v27.8v1h1h15.8h1v-1v-27.8V167.7L113.8,167.7
					z"/>
			</g>
		</g>
	</g>
	<g>
		<g>
			<g>
				<path class="st9" d="M204.8,122.6v27.8H189v-27.8H204.8 M205.9,121.6h-1H189h-1v1v27.8v1h1h15.8h1v-1v-27.8V121.6L205.9,121.6z"
					/>
			</g>
		</g>
		<g>
			<g>
				<path class="st9" d="M174.1,122.6v27.8h-15.8v-27.8H174.1 M175.2,121.6h-1h-15.8h-1v1v27.8v1h1h15.8h1v-1v-27.8V121.6
					L175.2,121.6z"/>
			</g>
		</g>
		<g>
			<g>
				<path class="st9" d="M143.4,122.6v27.8h-15.8v-27.8H143.4 M144.5,121.6h-1h-15.8h-1v1v27.8v1h1h15.8h1v-1v-27.8V121.6
					L144.5,121.6z"/>
			</g>
		</g>
		<g>
			<g>
				<path class="st9" d="M112.7,122.6v27.8H96.9v-27.8H112.7 M113.8,121.6h-1H96.9h-1v1v27.8v1h1h15.8h1v-1v-27.8V121.6L113.8,121.6
					z"/>
			</g>
		</g>
	</g>
	<g>
		<g>
			<g>
				<path class="st9" d="M204.8,76.6v27.8H189V76.6H204.8 M205.9,75.6h-1H189h-1v1v27.8v1h1h15.8h1v-1V76.6V75.6L205.9,75.6z"/>
			</g>
		</g>
		<g>
			<g>
				<path class="st9" d="M174.1,76.6v27.8h-15.8V76.6H174.1 M175.2,75.6h-1h-15.8h-1v1v27.8v1h1h15.8h1v-1V76.6V75.6L175.2,75.6z"/>
			</g>
		</g>
		<g>
			<g>
				<path class="st9" d="M143.4,76.6v27.8h-15.8V76.6H143.4 M144.5,75.6h-1h-15.8h-1v1v27.8v1h1h15.8h1v-1V76.6V75.6L144.5,75.6z"/>
			</g>
		</g>
		<g>
			<g>
				<path class="st9" d="M112.7,76.6v27.8H96.9V76.6H112.7 M113.8,75.6h-1H96.9h-1v1v27.8v1h1h15.8h1v-1V76.6V75.6L113.8,75.6z"/>
			</g>
		</g>
	</g>
	<g>
		<g>
			<g>
				<path class="st9" d="M204.8,30.5v27.8H189V30.5H204.8 M205.9,29.5h-1H189h-1v1v27.8v1h1h15.8h1v-1V30.5V29.5L205.9,29.5z"/>
			</g>
		</g>
		<g>
			<g>
				<path class="st9" d="M174.1,30.5v27.8h-15.8V30.5H174.1 M175.2,29.5h-1h-15.8h-1v1v27.8v1h1h15.8h1v-1V30.5V29.5L175.2,29.5z"/>
			</g>
		</g>
		<g>
			<g>
				<path class="st9" d="M143.4,30.5v27.8h-15.8V30.5H143.4 M144.5,29.5h-1h-15.8h-1v1v27.8v1h1h15.8h1v-1V30.5V29.5L144.5,29.5z"/>
			</g>
		</g>
		<g>
			<g>
				<path class="st9" d="M112.7,30.5v27.8H96.9V30.5H112.7 M113.8,29.5h-1H96.9h-1v1v27.8v1h1h15.8h1v-1V30.5V29.5L113.8,29.5z"/>
			</g>
		</g>
	</g>
</g>
<g>
	<rect x="113.4" y="222.3" class="st9" width="70.9" height="3.3"/>
</g>
<g>
	<rect x="147.3" y="231.9" class="st13" width="1.9" height="12.2"/>
</g>
<g>
	<rect x="143.7" y="231.9" class="st13" width="1.9" height="12.2"/>
</g>
<g class="st14">
	<g>
		<rect x="85.2" y="15.7" class="st8" width="128.8" height="8.4"/>
	</g>
</g>
<g>
	<rect x="81.6" y="9.7" class="st10" width="135.1" height="10"/>
	<path class="st9" d="M217.7,20.7H80.6v-12h137.2V20.7z M82.6,18.7h133.1v-8H82.6V18.7z"/>
</g>
<g>
	<g>
		<g>
			<path class="st9" d="M217.2,10.3h-7.2V3.1h7.2V10.3z M211.1,9.3h5.1V4.1h-5.1V9.3z"/>
		</g>
	</g>
	<g>
		<g>
			<path class="st9" d="M211.1,10.3h-7.2V3.1h7.2V10.3z M204.9,9.3h5.1V4.1h-5.1V9.3z"/>
		</g>
	</g>
	<g>
		<g>
			<path class="st9" d="M204.9,10.3h-7.2V3.1h7.2V10.3z M198.8,9.3h5.1V4.1h-5.1V9.3z"/>
		</g>
	</g>
	<g>
		<g>
			<path class="st9" d="M198.8,10.3h-7.2V3.1h7.2V10.3z M192.7,9.3h5.1V4.1h-5.1V9.3z"/>
		</g>
	</g>
	<g>
		<g>
			<path class="st9" d="M192.7,10.3h-7.2V3.1h7.2V10.3z M186.5,9.3h5.1V4.1h-5.1V9.3z"/>
		</g>
	</g>
	<g>
		<g>
			<path class="st9" d="M186.5,10.3h-7.2V3.1h7.2V10.3z M180.4,9.3h5.1V4.1h-5.1V9.3z"/>
		</g>
	</g>
	<g>
		<g>
			<path class="st9" d="M180.4,10.3h-7.2V3.1h7.2V10.3z M174.3,9.3h5.1V4.1h-5.1V9.3z"/>
		</g>
	</g>
	<g>
		<g>
			<path class="st9" d="M174.3,10.3h-7.2V3.1h7.2V10.3z M168.1,9.3h5.1V4.1h-5.1V9.3z"/>
		</g>
	</g>
	<g>
		<g>
			<path class="st9" d="M168.1,10.3h-7.2V3.1h7.2V10.3z M162,9.3h5.1V4.1H162V9.3z"/>
		</g>
	</g>
	<g>
		<g>
			<path class="st9" d="M162,10.3h-7.2V3.1h7.2V10.3z M155.8,9.3h5.1V4.1h-5.1V9.3z"/>
		</g>
	</g>
	<g>
		<g>
			<path class="st9" d="M155.8,10.3h-7.2V3.1h7.2V10.3z M149.7,9.3h5.1V4.1h-5.1V9.3z"/>
		</g>
	</g>
	<g>
		<g>
			<path class="st9" d="M149.7,10.3h-7.2V3.1h7.2V10.3z M143.6,9.3h5.1V4.1h-5.1V9.3z"/>
		</g>
	</g>
	<g>
		<g>
			<path class="st9" d="M143.6,10.3h-7.2V3.1h7.2V10.3z M137.4,9.3h5.1V4.1h-5.1V9.3z"/>
		</g>
	</g>
	<g>
		<g>
			<path class="st9" d="M137.4,10.3h-7.2V3.1h7.2V10.3z M131.3,9.3h5.1V4.1h-5.1V9.3z"/>
		</g>
	</g>
	<g>
		<g>
			<path class="st9" d="M131.3,10.3h-7.2V3.1h7.2V10.3z M125.1,9.3h5.1V4.1h-5.1V9.3z"/>
		</g>
	</g>
	<g>
		<g>
			<path class="st9" d="M125.1,10.3H118V3.1h7.2V10.3z M119,9.3h5.1V4.1H119V9.3z"/>
		</g>
	</g>
	<g>
		<g>
			<path class="st9" d="M119,10.3h-7.2V3.1h7.2V10.3z M112.9,9.3h5.1V4.1h-5.1V9.3z"/>
		</g>
	</g>
	<g>
		<g>
			<path class="st9" d="M112.9,10.3h-7.2V3.1h7.2V10.3z M106.7,9.3h5.1V4.1h-5.1V9.3z"/>
		</g>
	</g>
	<g>
		<g>
			<path class="st9" d="M106.7,10.3h-7.2V3.1h7.2V10.3z M100.6,9.3h5.1V4.1h-5.1V9.3z"/>
		</g>
	</g>
	<g>
		<g>
			<path class="st9" d="M100.6,10.3h-7.2V3.1h7.2V10.3z M94.4,9.3h5.1V4.1h-5.1V9.3z"/>
		</g>
	</g>
	<g>
		<g>
			<path class="st9" d="M94.4,10.3h-7.2V3.1h7.2V10.3z M88.3,9.3h5.1V4.1h-5.1V9.3z"/>
		</g>
	</g>
	<g>
		<g>
			<path class="st9" d="M88.3,10.3h-7.2V3.1h7.2V10.3z M82.2,9.3h5.1V4.1h-5.1V9.3z"/>
		</g>
	</g>
</g>
<g class="st15">
	<g>
		<g>
			<g>
				<rect x="186.7" y="198.3" class="st8" width="20.5" height="2"/>
			</g>
		</g>
		<g>
			<g>
				<rect x="156" y="198.3" class="st8" width="20.5" height="2"/>
			</g>
		</g>
		<g>
			<g>
				<rect x="125.3" y="198.3" class="st8" width="20.5" height="2"/>
			</g>
		</g>
		<g>
			<g>
				<rect x="94.6" y="198.3" class="st8" width="20.5" height="2"/>
			</g>
		</g>
	</g>
	<g>
		<g>
			<g>
				<rect x="186.7" y="152.3" class="st8" width="20.5" height="2"/>
			</g>
		</g>
		<g>
			<g>
				<rect x="156" y="152.3" class="st8" width="20.5" height="2"/>
			</g>
		</g>
		<g>
			<g>
				<rect x="125.3" y="152.3" class="st8" width="20.5" height="2"/>
			</g>
		</g>
		<g>
			<g>
				<rect x="94.6" y="152.3" class="st8" width="20.5" height="2"/>
			</g>
		</g>
	</g>
	<g>
		<g>
			<g>
				<rect x="186.7" y="106.2" class="st8" width="20.5" height="2"/>
			</g>
		</g>
		<g>
			<g>
				<rect x="156" y="106.2" class="st8" width="20.5" height="2"/>
			</g>
		</g>
		<g>
			<g>
				<rect x="125.3" y="106.2" class="st8" width="20.5" height="2"/>
			</g>
		</g>
		<g>
			<g>
				<rect x="94.6" y="106.2" class="st8" width="20.5" height="2"/>
			</g>
		</g>
	</g>
	<g>
		<g>
			<g>
				<rect x="186.7" y="60.2" class="st8" width="20.5" height="2"/>
			</g>
		</g>
		<g>
			<g>
				<rect x="156" y="60.2" class="st8" width="20.5" height="2"/>
			</g>
		</g>
		<g>
			<g>
				<rect x="125.3" y="60.2" class="st8" width="20.5" height="2"/>
			</g>
		</g>
		<g>
			<g>
				<rect x="94.6" y="60.2" class="st8" width="20.5" height="2"/>
			</g>
		</g>
	</g>
</g>
<g>
	<g>
		<g>
			<g>
				<rect x="184.7" y="196.5" class="st9" width="24.4" height="2.8"/>
			</g>
		</g>
		<g>
			<g>
				<rect x="154" y="196.5" class="st9" width="24.4" height="2.8"/>
			</g>
		</g>
		<g>
			<g>
				<rect x="123.3" y="196.5" class="st9" width="24.4" height="2.8"/>
			</g>
		</g>
		<g>
			<g>
				<rect x="92.6" y="196.5" class="st9" width="24.4" height="2.8"/>
			</g>
		</g>
	</g>
	<g>
		<g>
			<g>
				<rect x="184.7" y="150.5" class="st9" width="24.4" height="2.8"/>
			</g>
		</g>
		<g>
			<g>
				<rect x="154" y="150.5" class="st9" width="24.4" height="2.8"/>
			</g>
		</g>
		<g>
			<g>
				<rect x="123.3" y="150.5" class="st9" width="24.4" height="2.8"/>
			</g>
		</g>
		<g>
			<g>
				<rect x="92.6" y="150.5" class="st9" width="24.4" height="2.8"/>
			</g>
		</g>
	</g>
	<g>
		<g>
			<g>
				<rect x="184.7" y="104.4" class="st9" width="24.4" height="2.8"/>
			</g>
		</g>
		<g>
			<g>
				<rect x="154" y="104.4" class="st9" width="24.4" height="2.8"/>
			</g>
		</g>
		<g>
			<g>
				<rect x="123.3" y="104.4" class="st9" width="24.4" height="2.8"/>
			</g>
		</g>
		<g>
			<g>
				<rect x="92.6" y="104.4" class="st9" width="24.4" height="2.8"/>
			</g>
		</g>
	</g>
	<g>
		<g>
			<g>
				<rect x="184.7" y="58.4" class="st9" width="24.4" height="2.8"/>
			</g>
		</g>
		<g>
			<g>
				<rect x="154" y="58.4" class="st9" width="24.4" height="2.8"/>
			</g>
		</g>
		<g>
			<g>
				<rect x="123.3" y="58.4" class="st9" width="24.4" height="2.8"/>
			</g>
		</g>
		<g>
			<g>
				<rect x="92.6" y="58.4" class="st9" width="24.4" height="2.8"/>
			</g>
		</g>
	</g>
</g>
<g>
	<rect x="-6.5" y="257.2" class="st9" width="310.2" height="2"/>
</g>
<g>
	<g>
		<rect x="225.3" y="233.4" class="st9" width="2" height="24.9"/>
	</g>
	<g>
		<path class="st16" d="M226,241.3L226,241.3c-4.9,0-8.8-4-8.8-8.8V227c0-4.9,4-8.8,8.8-8.8h0c4.9,0,8.8,4,8.8,8.8v5.5
			C234.8,237.4,230.9,241.3,226,241.3z"/>
	</g>
	<g>
		<path class="st9" d="M226,242.4c-5.4,0-9.8-4.4-9.8-9.8V227c0-5.4,4.4-9.8,9.8-9.8c5.4,0,9.8,4.4,9.8,9.8v5.5
			C235.9,237.9,231.4,242.4,226,242.4z M226,219.2c-4.3,0-7.8,3.5-7.8,7.8v5.5c0,4.3,3.5,7.8,7.8,7.8s7.8-3.5,7.8-7.8V227
			C233.8,222.7,230.3,219.2,226,219.2z"/>
	</g>
</g>
<g>
	<g>
		<rect x="88.4" y="233.4" class="st9" width="2" height="24.9"/>
	</g>
	<g>
		<path class="st16" d="M89.1,241.3L89.1,241.3c-4.9,0-8.8-4-8.8-8.8V227c0-4.9,4-8.8,8.8-8.8h0c4.9,0,8.8,4,8.8,8.8v5.5
			C97.9,237.4,94,241.3,89.1,241.3z"/>
	</g>
	<g>
		<path class="st9" d="M89.1,242.4c-5.4,0-9.8-4.4-9.8-9.8V227c0-5.4,4.4-9.8,9.8-9.8s9.8,4.4,9.8,9.8v5.5
			C99,237.9,94.5,242.4,89.1,242.4z M89.1,219.2c-4.3,0-7.8,3.5-7.8,7.8v5.5c0,4.3,3.5,7.8,7.8,7.8c4.3,0,7.8-3.5,7.8-7.8V227
			C96.9,222.7,93.4,219.2,89.1,219.2z"/>
	</g>
</g>
<g>
	<g>
		<defs>
			<circle id="SVGID_1_" cx="196.1" cy="136.6" r="17.8"/>
		</defs>
		<clipPath id="SVGID_2_">
			<use xlink:href="#SVGID_1_"  style="overflow:visible;"/>
		</clipPath>
		<g class="st17">
			<g>
				<g>
					<g>
						<g>
							<rect x="184.3" y="187.9" class="st1" width="22.6" height="41.7"/>
						</g>
					</g>
					<g>
						<g>
							<rect x="140.6" y="187.9" class="st1" width="22.6" height="41.7"/>
						</g>
					</g>
					<g>
						<g>
							<rect x="96.8" y="187.9" class="st1" width="22.6" height="41.7"/>
						</g>
					</g>
					<g>
						<g>
							<rect x="53.1" y="187.9" class="st1" width="22.6" height="41.7"/>
						</g>
					</g>
				</g>
				<g>
					<g>
						<g>
							<rect x="184.3" y="122.3" class="st1" width="22.6" height="41.7"/>
						</g>
					</g>
					<g>
						<g>
							<rect x="140.6" y="122.3" class="st1" width="22.6" height="41.7"/>
						</g>
					</g>
					<g>
						<g>
							<rect x="96.8" y="122.3" class="st1" width="22.6" height="41.7"/>
						</g>
					</g>
					<g>
						<g>
							<rect x="53.1" y="122.3" class="st1" width="22.6" height="41.7"/>
						</g>
					</g>
				</g>
				<g>
					<g>
						<g>
							<rect x="184.3" y="56.7" class="st1" width="22.6" height="41.7"/>
						</g>
					</g>
					<g>
						<g>
							<rect x="140.6" y="56.7" class="st1" width="22.6" height="41.7"/>
						</g>
					</g>
					<g>
						<g>
							<rect x="96.8" y="56.7" class="st1" width="22.6" height="41.7"/>
						</g>
					</g>
					<g>
						<g>
							<rect x="53.1" y="56.7" class="st1" width="22.6" height="41.7"/>
						</g>
					</g>
				</g>
				<g>
					<g>
						<g>
							<rect x="184.3" y="-8.9" class="st1" width="22.6" height="41.7"/>
						</g>
					</g>
					<g>
						<g>
							<rect x="140.6" y="-8.9" class="st1" width="22.6" height="41.7"/>
						</g>
					</g>
					<g>
						<g>
							<rect x="96.8" y="-8.9" class="st1" width="22.6" height="41.7"/>
						</g>
					</g>
					<g>
						<g>
							<rect x="53.1" y="-8.9" class="st1" width="22.6" height="41.7"/>
						</g>
					</g>
				</g>
			</g>
			<g>
				<g>
					<g>
						<g>
							<polygon class="st12" points="206.9,224.9 187.9,224.9 187.9,187.9 184.3,187.9 184.3,229.6 206.9,229.6 							"/>
						</g>
					</g>
					<g>
						<g>
							<polygon class="st12" points="163.2,224.9 144.1,224.9 144.1,187.9 140.6,187.9 140.6,229.6 163.2,229.6 							"/>
						</g>
					</g>
					<g>
						<g>
							<polygon class="st12" points="119.4,224.9 100.4,224.9 100.4,187.9 96.8,187.9 96.8,229.6 119.4,229.6 							"/>
						</g>
					</g>
					<g>
						<g>
							<polygon class="st12" points="75.7,224.9 56.6,224.9 56.6,187.9 53.1,187.9 53.1,229.6 75.7,229.6 							"/>
						</g>
					</g>
				</g>
				<g>
					<g>
						<g>
							<polygon class="st12" points="206.9,159.3 187.9,159.3 187.9,122.3 184.3,122.3 184.3,164 206.9,164 							"/>
						</g>
					</g>
					<g>
						<g>
							<polygon class="st12" points="163.2,159.3 144.1,159.3 144.1,122.3 140.6,122.3 140.6,164 163.2,164 							"/>
						</g>
					</g>
					<g>
						<g>
							<polygon class="st12" points="119.4,159.3 100.4,159.3 100.4,122.3 96.8,122.3 96.8,164 119.4,164 							"/>
						</g>
					</g>
					<g>
						<g>
							<polygon class="st12" points="75.7,159.3 56.6,159.3 56.6,122.3 53.1,122.3 53.1,164 75.7,164 							"/>
						</g>
					</g>
				</g>
				<g>
					<g>
						<g>
							<polygon class="st12" points="206.9,93.7 187.9,93.7 187.9,56.7 184.3,56.7 184.3,98.4 206.9,98.4 							"/>
						</g>
					</g>
					<g>
						<g>
							<polygon class="st12" points="163.2,93.7 144.1,93.7 144.1,56.7 140.6,56.7 140.6,98.4 163.2,98.4 							"/>
						</g>
					</g>
					<g>
						<g>
							<polygon class="st12" points="119.4,93.7 100.4,93.7 100.4,56.7 96.8,56.7 96.8,98.4 119.4,98.4 							"/>
						</g>
					</g>
					<g>
						<g>
							<polygon class="st12" points="75.7,93.7 56.6,93.7 56.6,56.7 53.1,56.7 53.1,98.4 75.7,98.4 							"/>
						</g>
					</g>
				</g>
				<g>
					<g>
						<g>
							<polygon class="st12" points="206.9,28 187.9,28 187.9,-8.9 184.3,-8.9 184.3,32.8 206.9,32.8 							"/>
						</g>
					</g>
					<g>
						<g>
							<polygon class="st12" points="163.2,28 144.1,28 144.1,-8.9 140.6,-8.9 140.6,32.8 163.2,32.8 							"/>
						</g>
					</g>
					<g>
						<g>
							<polygon class="st12" points="119.4,28 100.4,28 100.4,-8.9 96.8,-8.9 96.8,32.8 119.4,32.8 							"/>
						</g>
					</g>
					<g>
						<g>
							<polygon class="st12" points="75.7,28 56.6,28 56.6,-8.9 53.1,-8.9 53.1,32.8 75.7,32.8 							"/>
						</g>
					</g>
				</g>
			</g>
			<g>
				<g>
					<g>
						<g>
							<rect x="184.3" y="207.6" class="st9" width="23.2" height="1"/>
						</g>
					</g>
					<g>
						<g>
							<rect x="140.5" y="207.6" class="st9" width="23.2" height="1"/>
						</g>
					</g>
					<g>
						<g>
							<rect x="96.8" y="207.6" class="st9" width="23.2" height="1"/>
						</g>
					</g>
					<g>
						<g>
							<rect x="53" y="207.6" class="st9" width="23.2" height="1"/>
						</g>
					</g>
				</g>
				<g>
					<g>
						<g>
							<rect x="184.3" y="142" class="st9" width="23.2" height="1"/>
						</g>
					</g>
					<g>
						<g>
							<rect x="140.5" y="142" class="st9" width="23.2" height="1"/>
						</g>
					</g>
					<g>
						<g>
							<rect x="96.8" y="142" class="st9" width="23.2" height="1"/>
						</g>
					</g>
					<g>
						<g>
							<rect x="53" y="142" class="st9" width="23.2" height="1"/>
						</g>
					</g>
				</g>
				<g>
					<g>
						<g>
							<rect x="184.3" y="76.4" class="st9" width="23.2" height="1"/>
						</g>
					</g>
					<g>
						<g>
							<rect x="140.5" y="76.4" class="st9" width="23.2" height="1"/>
						</g>
					</g>
					<g>
						<g>
							<rect x="96.8" y="76.4" class="st9" width="23.2" height="1"/>
						</g>
					</g>
					<g>
						<g>
							<rect x="53" y="76.4" class="st9" width="23.2" height="1"/>
						</g>
					</g>
				</g>
				<g>
					<g>
						<g>
							<rect x="184.3" y="10.8" class="st9" width="23.2" height="1"/>
						</g>
					</g>
					<g>
						<g>
							<rect x="140.5" y="10.8" class="st9" width="23.2" height="1"/>
						</g>
					</g>
					<g>
						<g>
							<rect x="96.8" y="10.8" class="st9" width="23.2" height="1"/>
						</g>
					</g>
					<g>
						<g>
							<rect x="53" y="10.8" class="st9" width="23.2" height="1"/>
						</g>
					</g>
				</g>
			</g>
			<g>
				<g>
					<g>
						<g>
							<path class="st9" d="M206.9,187.9v39.7h-22.6v-39.7H206.9 M208.3,186.5h-1.5h-22.6h-1.5v1.5v39.7v1.5h1.5h22.6h1.5v-1.5
								v-39.7V186.5L208.3,186.5z"/>
						</g>
					</g>
					<g>
						<g>
							<path class="st9" d="M163.1,187.9v39.7h-22.6v-39.7H163.1 M164.6,186.5h-1.5h-22.6h-1.5v1.5v39.7v1.5h1.5h22.6h1.5v-1.5
								v-39.7V186.5L164.6,186.5z"/>
						</g>
					</g>
					<g>
						<g>
							<path class="st9" d="M119.4,187.9v39.7H96.8v-39.7H119.4 M120.8,186.5h-1.5H96.8h-1.5v1.5v39.7v1.5h1.5h22.6h1.5v-1.5v-39.7
								V186.5L120.8,186.5z"/>
						</g>
					</g>
					<g>
						<g>
							<path class="st9" d="M75.6,187.9v39.7H53.1v-39.7H75.6 M77.1,186.5h-1.5H53.1h-1.5v1.5v39.7v1.5h1.5h22.6h1.5v-1.5v-39.7
								V186.5L77.1,186.5z"/>
						</g>
					</g>
				</g>
				<g>
					<g>
						<g>
							<path class="st9" d="M206.9,122.3V162h-22.6v-39.7H206.9 M208.3,120.9h-1.5h-22.6h-1.5v1.5V162v1.5h1.5h22.6h1.5V162v-39.7
								V120.9L208.3,120.9z"/>
						</g>
					</g>
					<g>
						<g>
							<path class="st9" d="M163.1,122.3V162h-22.6v-39.7H163.1 M164.6,120.9h-1.5h-22.6h-1.5v1.5V162v1.5h1.5h22.6h1.5V162v-39.7
								V120.9L164.6,120.9z"/>
						</g>
					</g>
					<g>
						<g>
							<path class="st9" d="M119.4,122.3V162H96.8v-39.7H119.4 M120.8,120.9h-1.5H96.8h-1.5v1.5V162v1.5h1.5h22.6h1.5V162v-39.7
								V120.9L120.8,120.9z"/>
						</g>
					</g>
					<g>
						<g>
							<path class="st9" d="M75.6,122.3V162H53.1v-39.7H75.6 M77.1,120.9h-1.5H53.1h-1.5v1.5V162v1.5h1.5h22.6h1.5V162v-39.7V120.9
								L77.1,120.9z"/>
						</g>
					</g>
				</g>
				<g>
					<g>
						<g>
							<path class="st9" d="M206.9,56.7v39.7h-22.6V56.7H206.9 M208.3,55.2h-1.5h-22.6h-1.5v1.5v39.7v1.5h1.5h22.6h1.5v-1.5V56.7
								V55.2L208.3,55.2z"/>
						</g>
					</g>
					<g>
						<g>
							<path class="st9" d="M163.1,56.7v39.7h-22.6V56.7H163.1 M164.6,55.2h-1.5h-22.6h-1.5v1.5v39.7v1.5h1.5h22.6h1.5v-1.5V56.7
								V55.2L164.6,55.2z"/>
						</g>
					</g>
					<g>
						<g>
							<path class="st9" d="M119.4,56.7v39.7H96.8V56.7H119.4 M120.8,55.2h-1.5H96.8h-1.5v1.5v39.7v1.5h1.5h22.6h1.5v-1.5V56.7V55.2
								L120.8,55.2z"/>
						</g>
					</g>
					<g>
						<g>
							<path class="st9" d="M75.6,56.7v39.7H53.1V56.7H75.6 M77.1,55.2h-1.5H53.1h-1.5v1.5v39.7v1.5h1.5h22.6h1.5v-1.5V56.7V55.2
								L77.1,55.2z"/>
						</g>
					</g>
				</g>
				<g>
					<g>
						<g>
							<path class="st9" d="M206.9-8.9v39.7h-22.6V-8.9H206.9 M208.3-10.4h-1.5h-22.6h-1.5v1.5v39.7v1.5h1.5h22.6h1.5v-1.5V-8.9
								V-10.4L208.3-10.4z"/>
						</g>
					</g>
					<g>
						<g>
							<path class="st9" d="M163.1-8.9v39.7h-22.6V-8.9H163.1 M164.6-10.4h-1.5h-22.6h-1.5v1.5v39.7v1.5h1.5h22.6h1.5v-1.5V-8.9
								V-10.4L164.6-10.4z"/>
						</g>
					</g>
					<g>
						<g>
							<path class="st9" d="M119.4-8.9v39.7H96.8V-8.9H119.4 M120.8-10.4h-1.5H96.8h-1.5v1.5v39.7v1.5h1.5h22.6h1.5v-1.5V-8.9V-10.4
								L120.8-10.4z"/>
						</g>
					</g>
					<g>
						<g>
							<path class="st9" d="M75.6-8.9v39.7H53.1V-8.9H75.6 M77.1-10.4h-1.5H53.1h-1.5v1.5v39.7v1.5h1.5h22.6h1.5v-1.5V-8.9V-10.4
								L77.1-10.4z"/>
						</g>
					</g>
				</g>
			</g>
			<g class="st15">
				<g>
					<g>
						<g>
							<rect x="181" y="230.2" class="st8" width="29.3" height="2.8"/>
						</g>
					</g>
					<g>
						<g>
							<rect x="137.3" y="230.2" class="st8" width="29.3" height="2.8"/>
						</g>
					</g>
					<g>
						<g>
							<rect x="93.5" y="230.2" class="st8" width="29.3" height="2.8"/>
						</g>
					</g>
					<g>
						<g>
							<rect x="49.8" y="230.2" class="st8" width="29.3" height="2.8"/>
						</g>
					</g>
				</g>
				<g>
					<g>
						<g>
							<rect x="181" y="164.5" class="st8" width="29.3" height="2.8"/>
						</g>
					</g>
					<g>
						<g>
							<rect x="137.3" y="164.5" class="st8" width="29.3" height="2.8"/>
						</g>
					</g>
					<g>
						<g>
							<rect x="93.5" y="164.5" class="st8" width="29.3" height="2.8"/>
						</g>
					</g>
					<g>
						<g>
							<rect x="49.8" y="164.5" class="st8" width="29.3" height="2.8"/>
						</g>
					</g>
				</g>
				<g>
					<g>
						<g>
							<rect x="181" y="98.9" class="st8" width="29.3" height="2.8"/>
						</g>
					</g>
					<g>
						<g>
							<rect x="137.3" y="98.9" class="st8" width="29.3" height="2.8"/>
						</g>
					</g>
					<g>
						<g>
							<rect x="93.5" y="98.9" class="st8" width="29.3" height="2.8"/>
						</g>
					</g>
					<g>
						<g>
							<rect x="49.8" y="98.9" class="st8" width="29.3" height="2.8"/>
						</g>
					</g>
				</g>
				<g>
					<g>
						<g>
							<rect x="181" y="33.3" class="st8" width="29.3" height="2.8"/>
						</g>
					</g>
					<g>
						<g>
							<rect x="137.3" y="33.3" class="st8" width="29.3" height="2.8"/>
						</g>
					</g>
					<g>
						<g>
							<rect x="93.5" y="33.3" class="st8" width="29.3" height="2.8"/>
						</g>
					</g>
					<g>
						<g>
							<rect x="49.8" y="33.3" class="st8" width="29.3" height="2.8"/>
						</g>
					</g>
				</g>
			</g>
			<g>
				<g>
					<g>
						<g>
							<rect x="178.2" y="227.6" class="st9" width="34.8" height="4"/>
						</g>
					</g>
					<g>
						<g>
							<rect x="134.5" y="227.6" class="st9" width="34.8" height="4"/>
						</g>
					</g>
					<g>
						<g>
							<rect x="90.7" y="227.6" class="st9" width="34.8" height="4"/>
						</g>
					</g>
					<g>
						<g>
							<rect x="47" y="227.6" class="st9" width="34.8" height="4"/>
						</g>
					</g>
				</g>
				<g>
					<g>
						<g>
							<rect x="178.2" y="162" class="st9" width="34.8" height="4"/>
						</g>
					</g>
					<g>
						<g>
							<rect x="134.5" y="162" class="st9" width="34.8" height="4"/>
						</g>
					</g>
					<g>
						<g>
							<rect x="90.7" y="162" class="st9" width="34.8" height="4"/>
						</g>
					</g>
					<g>
						<g>
							<rect x="47" y="162" class="st9" width="34.8" height="4"/>
						</g>
					</g>
				</g>
				<g>
					<g>
						<g>
							<rect x="178.2" y="96.4" class="st9" width="34.8" height="4"/>
						</g>
					</g>
					<g>
						<g>
							<rect x="134.5" y="96.4" class="st9" width="34.8" height="4"/>
						</g>
					</g>
					<g>
						<g>
							<rect x="90.7" y="96.4" class="st9" width="34.8" height="4"/>
						</g>
					</g>
					<g>
						<g>
							<rect x="47" y="96.4" class="st9" width="34.8" height="4"/>
						</g>
					</g>
				</g>
				<g>
					<g>
						<g>
							<rect x="178.2" y="30.8" class="st9" width="34.8" height="4"/>
						</g>
					</g>
					<g>
						<g>
							<rect x="134.5" y="30.8" class="st9" width="34.8" height="4"/>
						</g>
					</g>
					<g>
						<g>
							<rect x="90.7" y="30.8" class="st9" width="34.8" height="4"/>
						</g>
					</g>
					<g>
						<g>
							<rect x="47" y="30.8" class="st9" width="34.8" height="4"/>
						</g>
					</g>
				</g>
			</g>
		</g>
	</g>
	<g>
		<polygon class="st18" points="209,161 213.6,157.9 215.7,158.6 229.6,179.4 230.4,181.5 229.6,182.5 225.1,185.3 223.1,185.1 
			208.7,163.3 		"/>
	</g>
	<g>
		<path class="st9" d="M196.1,118.6c5.8,0,11.4,2.8,14.9,8c5.4,8.2,3.2,19.2-5,24.7c-3,2-6.4,3-9.8,3c-5.8,0-11.4-2.8-14.9-8
			c-5.4-8.2-3.2-19.2,5-24.7C189.3,119.6,192.7,118.6,196.1,118.6 M196.1,117.5L196.1,117.5c-3.7,0-7.3,1.1-10.4,3.1
			c-4.2,2.8-7.1,7.1-8.1,12c-1,5,0,10,2.8,14.2c3.5,5.3,9.4,8.5,15.8,8.5c3.7,0,7.3-1.1,10.4-3.1c8.7-5.8,11.1-17.5,5.3-26.2
			C208.4,120.7,202.5,117.5,196.1,117.5L196.1,117.5z"/>
	</g>
	<g>
		<path class="st19" d="M213,159l0.7,1.1l-2.8,1.8l-0.7-1.1l-0.4,0.3c-0.1,0.1-0.3,0.2-0.4,0.4l0.7,1l0.6,0.9l0.9-0.6l2.8-1.8
			l0.9-0.6l-0.6-0.9l-0.7-1c-0.2,0-0.3,0.1-0.5,0.2L213,159z"/>
	</g>
	<g>
		<path class="st19" d="M204.6,154.3l0.9-0.6l2.8-1.8l0.9-0.6l0.6,0.9l0.3,0.4c8-6.9,9.9-18.8,3.9-27.9c-4.1-6.2-10.9-9.6-17.8-9.6
			c-4,0-8.1,1.1-11.7,3.5c-9.8,6.5-12.5,19.7-6,29.5c4.1,6.2,10.9,9.6,17.8,9.6c3.2,0,6.4-0.7,9.4-2.2l-0.3-0.4L204.6,154.3z"/>
	</g>
	<g>
		<path class="st19" d="M215.1,160.3l-0.9,0.6l-2.8,1.8l-0.9,0.6l-0.6-0.9l-0.7-1c-0.4,0.5-0.5,1.3-0.1,1.9l3,4.6l6.4-4.2l-3-4.6
			c-0.3-0.5-0.8-0.7-1.4-0.7c-0.1,0-0.3,0-0.4,0.1l0.7,1L215.1,160.3z"/>
	</g>
	<g>
		
			<rect x="210.3" y="159.8" transform="matrix(0.834 -0.5518 0.5518 0.834 -53.331 143.5772)" class="st19" width="3.3" height="1.3"/>
	</g>
	<g>
		<path class="st19" d="M219.3,164.6l-6.4,4.2l10.2,15.4c0.3,0.5,0.8,0.7,1.4,0.7c0.3,0,0.6-0.1,0.9-0.3l3.7-2.4
			c0.7-0.5,1-1.5,0.5-2.3L219.3,164.6z"/>
	</g>
	<g>
		<path class="st19" d="M210.3,154.9c-0.4,0.3-0.9,0.7-1.3,1c-0.5,0.3-1,0.6-1.4,0.9l2.1,3.1l2.8-1.8L210.3,154.9z"/>
	</g>
	<g>
		<path class="st19" d="M209.2,153.2l-0.3-0.5l-2.8,1.8l0.4,0.5c0.5-0.3,1-0.6,1.4-0.9C208.3,153.9,208.8,153.6,209.2,153.2z"/>
	</g>
	<g>
		<path class="st9" d="M209.6,159.9l-2.1-3.1c-0.3,0.2-0.6,0.3-0.9,0.5l2.2,3.3c0.1-0.1,0.2-0.2,0.4-0.3L209.6,159.9z"/>
	</g>
	<g>
		<path class="st9" d="M212.4,158.1l0.4-0.3c0.1-0.1,0.3-0.2,0.5-0.2l-2.2-3.3c-0.3,0.2-0.5,0.4-0.8,0.6L212.4,158.1z"/>
	</g>
	<g>
		<path class="st9" d="M196.1,162.2c-8.7,0-16.7-4.3-21.5-11.5c-3.8-5.7-5.1-12.6-3.8-19.4c1.4-6.7,5.3-12.5,11-16.3
			c4.2-2.8,9.1-4.3,14.2-4.3c8.7,0,16.7,4.3,21.5,11.5c3.8,5.7,5.1,12.6,3.8,19.4c-1.2,5.8-4.2,10.8-8.7,14.6
			c-0.3,0.2-0.6,0.5-0.9,0.7l-0.1,0.1c-0.4,0.3-0.9,0.7-1.3,1c-0.5,0.3-1.1,0.7-1.6,1c-0.3,0.1-0.5,0.3-0.8,0.4l-0.2,0.1
			C204.1,161.2,200.1,162.2,196.1,162.2z M196.1,114.9c-4.2,0-8.3,1.2-11.9,3.6c-4.8,3.2-8.1,8-9.2,13.7c-1.1,5.6,0,11.4,3.1,16.2
			c4,6,10.7,9.7,18,9.7c3.2,0,6.5-0.8,9.5-2.2c0.4-0.2,0.6-0.3,0.9-0.5c0.5-0.3,1-0.6,1.5-0.9c0.5-0.3,0.9-0.7,1.3-1
			c0.3-0.2,0.5-0.4,0.8-0.7c8.2-7,9.9-19.2,3.9-28.2C210.1,118.5,203.4,114.9,196.1,114.9z"/>
	</g>
	<g>
		
			<rect x="209.6" y="158.9" transform="matrix(0.834 -0.5518 0.5518 0.834 -52.9003 143.0624)" class="st9" width="3.3" height="1"/>
	</g>
	<g>
		<path class="st9" d="M230.3,179.4l-13.8-20.9c-0.5-0.7-1.3-1.2-2.2-1.2c-0.3,0-0.7,0.1-1,0.2l0.6,0.9c0.1,0,0.3-0.1,0.4-0.1
			c0.5,0,1,0.3,1.4,0.7l3,4.6l-6.4,4.2l-3-4.6c-0.4-0.6-0.3-1.4,0.1-1.9l-0.6-0.9c-0.9,0.9-1.1,2.3-0.4,3.3l13.8,20.9
			c0.5,0.7,1.3,1.2,2.2,1.2c0.5,0,1-0.2,1.5-0.4l3.7-2.4C230.8,182.3,231.1,180.7,230.3,179.4z M229,182.3l-3.7,2.4
			c-0.3,0.2-0.6,0.3-0.9,0.3c-0.5,0-1-0.3-1.4-0.7l-10.2-15.4l6.4-4.2l10.2,15.4C230,180.8,229.8,181.8,229,182.3z"/>
	</g>
	<g>
		<path class="st9" d="M209.8,161.1l0.4-0.3l-0.6-0.9l-0.4,0.3c-0.1,0.1-0.3,0.2-0.4,0.3l0.6,0.9
			C209.5,161.3,209.6,161.2,209.8,161.1z"/>
	</g>
	<g>
		<path class="st9" d="M212.4,158.1l0.6,0.9l0.4-0.3c0.1-0.1,0.3-0.2,0.5-0.2l-0.6-0.9c-0.2,0.1-0.3,0.1-0.5,0.2L212.4,158.1z"/>
	</g>
	<g class="st14">
		<circle class="st18" cx="196" cy="136.6" r="17.8"/>
	</g>
	<g id="XMLID_47_">
		<polygon class="st20" points="203.2,129.8 193.7,139.2 190.2,135.7 188.2,137.6 191.8,141.2 193.7,143.1 195.7,141.2 205.1,131.7 
					"/>
	</g>
</g>
<g id="XMLID_1213_">
	<g>
		<g>
			<g>
				<polygon class="st20" points="199.4,173.1 195.8,176.7 194.5,175.4 193.7,176.1 195.1,177.4 195.8,178.1 196.5,177.4 
					200.1,173.9 				"/>
			</g>
		</g>
		<g>
			<g>
				<polygon class="st20" points="168.7,173.1 165.1,176.7 163.8,175.4 163,176.1 164.4,177.4 165.1,178.1 165.8,177.4 169.4,173.9 
									"/>
			</g>
		</g>
		<g>
			<g>
				<polygon class="st20" points="138,173.1 134.4,176.7 133.1,175.4 132.4,176.1 133.7,177.4 134.4,178.1 135.1,177.4 138.7,173.9 
									"/>
			</g>
		</g>
		<g>
			<g>
				<polygon class="st20" points="107.3,173.1 103.7,176.7 102.4,175.4 101.7,176.1 103,177.4 103.7,178.1 104.4,177.4 108,173.9 
									"/>
			</g>
		</g>
	</g>
	<g>
		<g>
			<g>
				<polygon class="st20" points="168.7,127.1 165.1,130.6 163.8,129.3 163,130 164.4,131.4 165.1,132.1 165.8,131.4 169.4,127.8 
									"/>
			</g>
		</g>
		<g>
			<g>
				<polygon class="st20" points="138,127.1 134.4,130.6 133.1,129.3 132.4,130 133.7,131.4 134.4,132.1 135.1,131.4 138.7,127.8 
									"/>
			</g>
		</g>
		<g>
			<g>
				<polygon class="st20" points="107.3,127.1 103.7,130.6 102.4,129.3 101.7,130 103,131.4 103.7,132.1 104.4,131.4 108,127.8 				
					"/>
			</g>
		</g>
	</g>
	<g>
		<g>
			<g>
				<polygon class="st20" points="199.4,81.1 195.8,84.6 194.5,83.3 193.7,84 195.1,85.3 195.8,86 196.5,85.3 200.1,81.8 				"/>
			</g>
		</g>
		<g>
			<g>
				<polygon class="st20" points="168.7,81.1 165.1,84.6 163.8,83.3 163,84 164.4,85.3 165.1,86 165.8,85.3 169.4,81.8 				"/>
			</g>
		</g>
		<g>
			<g>
				<polygon class="st20" points="138,81.1 134.4,84.6 133.1,83.3 132.4,84 133.7,85.3 134.4,86 135.1,85.3 138.7,81.8 				"/>
			</g>
		</g>
		<g>
			<g>
				<polygon class="st20" points="107.3,81.1 103.7,84.6 102.4,83.3 101.7,84 103,85.3 103.7,86 104.4,85.3 108,81.8 				"/>
			</g>
		</g>
	</g>
	<g>
		<g>
			<g>
				<polygon class="st20" points="199.4,35 195.8,38.5 194.5,37.2 193.7,37.9 195.1,39.3 195.8,40 196.5,39.3 200.1,35.7 				"/>
			</g>
		</g>
		<g>
			<g>
				<polygon class="st20" points="168.7,35 165.1,38.5 163.8,37.2 163,37.9 164.4,39.3 165.1,40 165.8,39.3 169.4,35.7 				"/>
			</g>
		</g>
		<g>
			<g>
				<polygon class="st20" points="138,35 134.4,38.5 133.1,37.2 132.4,37.9 133.7,39.3 134.4,40 135.1,39.3 138.7,35.7 				"/>
			</g>
		</g>
		<g>
			<g>
				<polygon class="st20" points="107.3,35 103.7,38.5 102.4,37.2 101.7,37.9 103,39.3 103.7,40 104.4,39.3 108,35.7 				"/>
			</g>
		</g>
	</g>
</g>
</svg>
