<?xml version="1.0" encoding="utf-8"?>
<!-- Generator: Adobe Illustrator 21.0.0, SVG Export Plug-In . SVG Version: 6.00 Build 0)  -->
<svg version="1.1" id="Layer_1" xmlns="http://www.w3.org/2000/svg" xmlns:xlink="http://www.w3.org/1999/xlink" x="0px" y="0px"
	 viewBox="0 0 130 31" style="enable-background:new 0 0 130 31;" xml:space="preserve">
<style type="text/css">
	.st0{fill-rule:evenodd;clip-rule:evenodd;fill:#FFFFFF;}
</style>
<g>
	<path class="st0" d="M128.5,10.9c-0.4-1.1-1-1.9-1.8-2.4C125.9,8,125,7.7,124,7.7c-1.6,0-2.9,0.7-3.8,2c-0.8,1.2-1.2,3.1-1.2,5.8
		c0,0.2,0,0.3,0,0.5c-0.2-0.3-0.4-0.6-0.7-0.8c-0.9-0.9-1.9-1.3-3.1-1.3l2.5-4.9l-2.4-1.2l-3.7,7.3c-0.4,0.7-0.6,1.3-0.8,1.7
		c-0.1-0.3-0.3-0.5-0.5-0.8c-0.5-0.7-1.2-1.1-2.1-1.4c0.7-0.3,1.2-0.8,1.5-1.3c0.4-0.5,0.5-1.1,0.5-1.8c0-1-0.4-1.9-1.2-2.7
		c-0.8-0.8-1.8-1.1-3-1.1c-1.3,0-2.5,0.5-3.3,1.4c-0.6,0.7-1,1.5-1.2,2.6h2.7c0.1-0.4,0.3-0.7,0.7-0.9c0.3-0.2,0.7-0.4,1.1-0.4
		c0.4,0,0.8,0.1,1.1,0.4c0.3,0.3,0.4,0.6,0.4,1c0,0.3-0.1,0.6-0.3,0.9c-0.2,0.3-0.4,0.5-0.8,0.6c-0.3,0.2-0.8,0.3-1.5,0.3v2.4
		c1.1,0,1.9,0.2,2.5,0.7c0.6,0.5,0.9,1,0.9,1.7c0,0.6-0.2,1.1-0.6,1.5c-0.4,0.4-1,0.6-1.6,0.6c-0.6,0-1.1-0.2-1.5-0.5
		c-0.4-0.4-0.7-0.9-0.8-1.7H101c0.1,1.5,0.6,2.6,1.5,3.5c0.9,0.9,2,1.3,3.5,1.3c1.5,0,2.7-0.5,3.7-1.4c0.5-0.5,0.9-1,1.1-1.6
		c0.2,0.6,0.6,1.1,1,1.6c0.9,0.9,2,1.4,3.3,1.4c1.3,0,2.3-0.4,3.2-1.3c0.6-0.6,1-1.3,1.2-2.1c0,0.1,0.1,0.2,0.1,0.3
		c0.4,1,1,1.8,1.7,2.3C122,22.7,123,23,124,23c1.1,0,2-0.2,2.7-0.8c0.7-0.5,1.3-1.3,1.7-2.4c0.4-1.1,0.6-2.6,0.6-4.5
		C129.1,13.4,128.9,11.9,128.5,10.9z M116.3,19.8c-0.4,0.4-0.8,0.6-1.3,0.6c-0.5,0-0.9-0.2-1.3-0.6c-0.4-0.4-0.5-0.9-0.5-1.4
		c0-0.6,0.2-1,0.5-1.4c0.3-0.4,0.8-0.6,1.3-0.6c0.5,0,1,0.2,1.4,0.6c0.4,0.4,0.5,0.8,0.5,1.4C116.8,19,116.7,19.5,116.3,19.8z
		 M125.6,19.4c-0.4,0.7-0.9,1-1.6,1c-0.7,0-1.3-0.4-1.7-1.1c-0.4-0.7-0.7-2-0.7-3.8c0-1.4,0.1-2.5,0.3-3.2c0.2-0.7,0.5-1.3,0.8-1.5
		c0.4-0.3,0.8-0.5,1.3-0.5c0.7,0,1.2,0.4,1.7,1.1c0.4,0.7,0.6,2,0.6,4C126.4,17.3,126.1,18.6,125.6,19.4z"/>
	<path class="st0" d="M54.6,14.9c-0.1-0.4-0.2-0.8-0.4-1.3c-0.2-0.4-0.4-0.8-0.8-1.1c-0.3-0.3-0.7-0.6-1.2-0.8
		c-0.5-0.2-1-0.3-1.7-0.3c-0.7,0-1.3,0.1-1.8,0.3c-0.5,0.2-0.9,0.5-1.3,0.8c-0.3,0.3-0.6,0.7-0.9,1.1c-0.2,0.4-0.4,0.8-0.5,1.3
		c-0.1,0.4-0.2,0.9-0.2,1.3c0,0.4-0.1,0.8-0.1,1.1c0,0.3,0,0.6,0.1,1c0,0.4,0.1,0.8,0.2,1.2c0.1,0.4,0.3,0.8,0.5,1.2
		c0.2,0.4,0.6,0.7,0.9,1.1c0.4,0.3,0.9,0.6,1.4,0.8c0.6,0.2,1.2,0.3,2,0.3c0.5,0,1,0,1.3-0.1c0.4-0.1,0.7-0.2,1-0.3
		c0.3-0.1,0.5-0.2,0.6-0.3c0.1-0.1,0.2-0.1,0.3-0.2l0.3-1.9c0,0-0.1,0.1-0.2,0.2c-0.1,0.1-0.3,0.2-0.6,0.3c-0.3,0.1-0.6,0.2-1,0.3
		c-0.4,0.1-0.8,0.1-1.3,0.1c-0.8,0-1.4-0.1-1.8-0.4c-0.4-0.3-0.8-0.6-1-0.9c-0.2-0.3-0.4-0.6-0.4-1c-0.1-0.3-0.1-0.6-0.1-0.7v-0.3
		h6.7v-0.6c0-0.3,0-0.6,0-1C54.8,15.7,54.7,15.3,54.6,14.9z M52.7,16.3l-4.6,0c0,0,0-0.1,0-0.3c0-0.2,0-0.4,0.1-0.6
		c0-0.2,0.1-0.5,0.2-0.8c0.1-0.3,0.2-0.5,0.4-0.8c0.2-0.2,0.4-0.4,0.7-0.6c0.3-0.1,0.6-0.2,1.1-0.2c0.4,0,0.7,0.1,0.9,0.3
		c0.3,0.2,0.5,0.4,0.6,0.6c0.2,0.2,0.3,0.5,0.4,0.7c0.1,0.3,0.1,0.5,0.2,0.8c0,0.2,0.1,0.4,0.1,0.6C52.7,16.2,52.7,16.3,52.7,16.3z"
		/>
	<path class="st0" d="M40.9,17.2c0,0.5,0,1-0.1,1.6c0,0.5-0.2,1-0.4,1.4c-0.4,0.6-1.1,1-2,1c-0.3,0-0.6,0-0.9-0.1
		c-0.3-0.1-0.5-0.1-0.7-0.2c-0.2-0.1-0.4-0.2-0.5-0.2c-0.1-0.1-0.2-0.1-0.2-0.1l0.5,2.1c0.2,0.1,0.4,0.2,0.6,0.3
		c0.2,0.1,0.4,0.1,0.7,0.2c0.3,0.1,0.6,0.1,1,0.1c0.1,0,0.3,0,0.6,0c0.2,0,0.5-0.1,0.8-0.1c0.3-0.1,0.6-0.2,0.9-0.3
		c0.3-0.1,0.6-0.3,0.8-0.6c0.3-0.2,0.5-0.5,0.6-0.8c0.2-0.3,0.3-0.6,0.4-1c0.1-0.4,0.2-0.8,0.2-1.3c0.1-0.5,0.1-1.1,0.1-1.8V7.8
		h-2.5V17.2z"/>
	<path class="st0" d="M98.5,12.5c-0.3-0.3-0.7-0.6-1.3-0.8c-0.5-0.2-1.2-0.3-2-0.3c-0.5,0-0.9,0-1.2,0.1c-0.4,0.1-0.7,0.2-0.9,0.3
		c-0.3,0.1-0.5,0.2-0.7,0.4L91.9,14c0.2-0.2,0.4-0.4,0.7-0.5c0.2-0.1,0.5-0.2,0.9-0.3c0.4-0.1,0.8-0.2,1.2-0.2c0.6,0,1.1,0,1.4,0.2
		c0.3,0.1,0.6,0.3,0.8,0.5c0.2,0.3,0.3,0.5,0.3,0.8c0,0.3,0,0.5,0,0.7v0.6c-0.1,0-0.2,0-0.4,0c-0.1,0-0.2,0-0.4,0
		c-0.2,0-0.3,0-0.5,0c-0.4,0-0.8,0-1.3,0.1c-0.4,0.1-0.8,0.2-1.2,0.3c-0.4,0.1-0.7,0.3-1.1,0.5c-0.3,0.2-0.6,0.5-0.8,0.8
		c-0.3,0.4-0.5,0.8-0.5,1.2C91,19,91,19.3,91,19.5c0,0.3,0,0.6,0.1,1c0.1,0.4,0.2,0.7,0.5,1c0.2,0.3,0.5,0.6,0.9,0.8
		c0.4,0.2,0.9,0.4,1.6,0.4c0.8,0,1.5-0.1,2-0.4c0.5-0.3,1-0.7,1.3-1.2v0.6c0,0.1,0,0.2,0,0.3c0,0.1,0.1,0.2,0.1,0.3
		c0.1,0.1,0.2,0.2,0.4,0.2c0.2,0,0.3,0,0.3,0h1.1v-7.2c0-0.7-0.1-1.3-0.2-1.7C99.1,13.3,98.9,12.9,98.5,12.5z M97.3,19.3
		c0,0.4-0.1,0.7-0.4,1c-0.3,0.3-0.6,0.5-1,0.6c-0.1,0.1-0.3,0.1-0.4,0.1c-0.1,0-0.3,0-0.4,0c-0.5,0-1-0.1-1.4-0.4
		c-0.4-0.3-0.6-0.7-0.6-1.4c0-0.1,0-0.2,0-0.3c0-0.1,0-0.2,0.1-0.3c0.1-0.5,0.5-0.9,1-1.1c0.5-0.2,1.1-0.3,1.9-0.3
		c0.2,0,0.3,0,0.5,0c0.1,0,0.3,0,0.4,0c0.1,0,0.3,0,0.4,0.1V19.3z"/>
	<path class="st0" d="M85.4,14.9c-0.1-0.4-0.2-0.8-0.4-1.3c-0.2-0.4-0.4-0.8-0.8-1.1c-0.3-0.3-0.7-0.6-1.2-0.8
		c-0.5-0.2-1-0.3-1.7-0.3c-0.7,0-1.3,0.1-1.8,0.3c-0.5,0.2-0.9,0.5-1.3,0.8c-0.3,0.3-0.6,0.7-0.8,1.1c-0.2,0.4-0.4,0.8-0.5,1.3
		c-0.1,0.4-0.2,0.9-0.2,1.3c0,0.4-0.1,0.8-0.1,1.1c0,0.3,0,0.6,0.1,1c0,0.4,0.1,0.8,0.3,1.2c0.1,0.4,0.3,0.8,0.5,1.2
		c0.2,0.4,0.6,0.7,0.9,1.1c0.4,0.3,0.9,0.6,1.4,0.8c0.6,0.2,1.2,0.3,2,0.3c0.5,0,1,0,1.3-0.1c0.4-0.1,0.7-0.2,1-0.3
		c0.3-0.1,0.5-0.2,0.6-0.3C85,22,85,22,85.1,21.9l0.3-1.9c0,0-0.1,0.1-0.2,0.2c-0.1,0.1-0.3,0.2-0.6,0.3c-0.3,0.1-0.6,0.2-1,0.3
		c-0.4,0.1-0.8,0.1-1.3,0.1c-0.8,0-1.4-0.1-1.8-0.4c-0.4-0.3-0.8-0.6-1-0.9c-0.2-0.3-0.4-0.6-0.4-1c-0.1-0.3-0.1-0.6-0.1-0.7v-0.3
		h6.7v-0.6c0-0.3,0-0.6,0-1C85.5,15.7,85.5,15.3,85.4,14.9z M83.5,16.3l-4.6,0c0,0,0-0.1,0-0.3c0-0.2,0-0.4,0.1-0.6
		c0-0.2,0.1-0.5,0.2-0.8c0.1-0.3,0.2-0.5,0.4-0.8c0.2-0.2,0.4-0.4,0.7-0.6c0.3-0.1,0.6-0.2,1.1-0.2c0.4,0,0.7,0.1,0.9,0.3
		c0.3,0.2,0.5,0.4,0.6,0.6c0.2,0.2,0.3,0.5,0.4,0.7c0.1,0.3,0.1,0.5,0.2,0.8c0,0.2,0.1,0.4,0.1,0.6C83.5,16.2,83.5,16.3,83.5,16.3z"
		/>
	<path class="st0" d="M63.9,12.5c-0.6-0.7-1.4-1.1-2.7-1.1c-0.5,0-0.9,0.1-1.2,0.2c-0.3,0.1-0.6,0.3-0.9,0.5
		c-0.2,0.2-0.4,0.4-0.6,0.6c-0.1,0.2-0.2,0.3-0.3,0.4v-1.4h-2.1v11h2.1v-6.7c0-0.2,0-0.4,0-0.6c0-0.2,0-0.4,0.1-0.6
		c0.1-0.2,0.1-0.4,0.2-0.6c0.1-0.2,0.2-0.4,0.4-0.5c0.2-0.2,0.4-0.3,0.6-0.4c0.2-0.1,0.5-0.1,0.8-0.1c0.5,0,0.9,0.1,1.1,0.2
		c0.3,0.2,0.5,0.4,0.6,0.6c0.1,0.2,0.2,0.5,0.2,0.8c0,0.3,0,0.6,0,0.9v6.9h2.1v-7.4c0-0.5,0-1-0.1-1.5
		C64.4,13.3,64.2,12.9,63.9,12.5z"/>
	<rect x="87.2" y="7.8" class="st0" width="2.1" height="14.8"/>
	<path class="st0" d="M73,12.7c-0.1-0.2-0.3-0.4-0.5-0.6c-0.2-0.2-0.5-0.3-0.8-0.4c-0.3-0.1-0.8-0.2-1.3-0.2c-0.9,0-1.6,0.2-2.1,0.6
		c-0.5,0.4-1,0.9-1.3,1.5c-0.3,0.6-0.5,1.2-0.7,1.9c-0.1,0.7-0.2,1.3-0.2,1.8c0,0.7,0.1,1.5,0.2,2.1c0.1,0.7,0.4,1.3,0.7,1.8
		c0.3,0.5,0.8,0.9,1.3,1.2c0.5,0.3,1.2,0.5,1.9,0.4c0.6,0,1.1-0.1,1.5-0.3c0.4-0.2,0.8-0.5,1.2-0.9v1.1h2V7.8H73V12.7z M73,20
		c-0.1,0.1-0.2,0.3-0.4,0.4c-0.1,0.1-0.3,0.2-0.5,0.3c-0.2,0.1-0.4,0.2-0.6,0.2C71.3,21,71,21,70.8,21c-0.4,0-0.8-0.1-1.1-0.3
		c-0.3-0.2-0.5-0.5-0.7-0.8c-0.2-0.3-0.3-0.7-0.4-1.2c-0.1-0.5-0.1-1-0.1-1.5c0-0.4,0-0.8,0.1-1.3c0-0.5,0.1-0.9,0.3-1.3
		c0.2-0.4,0.4-0.8,0.7-1.1c0.3-0.3,0.7-0.4,1.3-0.4c0.4,0,0.7,0.1,1,0.2c0.3,0.1,0.5,0.3,0.7,0.4c0.2,0.3,0.4,0.6,0.5,0.9
		c0.1,0.3,0.1,0.7,0.1,1V20z"/>
	<path class="st0" d="M27.8,12.5l-2.3,3.9l-2.3,3.9h2.6c-1,2.2-2.7,4-4.8,5.2v-7l-3.2-1.9v-5.2l-2.8-1.6v7.6l2.1-1.2v10.6
		c-0.5,0.1-1.1,0.1-1.6,0.1v0c-0.8,0-1.5-0.1-2.3-0.2v-8.3l0.7-0.4V9.2l-3.9,2.3v3.9l1.8-1v12c-0.6-0.2-1.2-0.5-1.8-0.8V15.3
		l-2.4,1.3v7.2C5.4,21.7,4,18.7,4,15.4C4,9,9.2,3.8,15.6,3.8v0c3.8,0.1,7.1,1.9,9.2,4.8c1.5,2.1,4.3,0.3,3-1.6
		c-2.7-3.9-7.1-6.5-12.1-6.6v0c-8.3,0-15,6.7-15,15c0,8.3,6.7,15,15,15v0c6.5-0.1,11.9-4.3,13.9-10.1h2.8L30,16.4L27.8,12.5z"/>
</g>
</svg>
